<svg width="30" height="31" viewBox="0 0 30 31" fill="none" xmlns="http://www.w3.org/2000/svg">
<path d="M29.7254 7.7502V10.8502C29.7254 11.2613 29.5621 11.6555 29.2714 11.9462C28.9807 12.2369 28.5865 12.4002 28.1754 12.4002H25.0754C24.6643 12.4002 24.2701 12.2369 23.9794 11.9462C23.6887 11.6555 23.5254 11.2613 23.5254 10.8502V7.7502C23.5254 7.33911 23.6887 6.94486 23.9794 6.65418C24.2701 6.3635 24.6643 6.2002 25.0754 6.2002H28.1754C28.5865 6.2002 28.9807 6.3635 29.2714 6.65418C29.5621 6.94486 29.7254 7.33911 29.7254 7.7502ZM28.1754 15.5002H25.0754C24.6643 15.5002 24.2701 15.6635 23.9794 15.9542C23.6887 16.2449 23.5254 16.6391 23.5254 17.0502V20.1502C23.5254 20.5613 23.6887 20.9555 23.9794 21.2462C24.2701 21.5369 24.6643 21.7002 25.0754 21.7002H28.1754C28.5865 21.7002 28.9807 21.5369 29.2714 21.2462C29.5621 20.9555 29.7254 20.5613 29.7254 20.1502V17.0502C29.7254 16.6391 29.5621 16.2449 29.2714 15.9542C28.9807 15.6635 28.5865 15.5002 28.1754 15.5002Z" fill="#03EBB3"/>
<path d="M23.5254 0H3.37539C1.66331 0 0.275391 1.38792 0.275391 3.1V27.9C0.275391 29.6121 1.66331 31 3.37539 31H23.5254C25.2375 31 26.6254 29.6121 26.6254 27.9V3.1C26.6254 1.38792 25.2375 0 23.5254 0Z" fill="#E6E6E6"/>
<path d="M15.7756 0H6.47559V10.85C6.47639 11.1142 6.54471 11.3738 6.67408 11.6042C6.80345 11.8346 6.98957 12.0281 7.21475 12.1663C7.43994 12.3045 7.69672 12.3829 7.96071 12.394C8.2247 12.405 8.48713 12.3484 8.72309 12.2295L11.1256 11.036L13.5281 12.2295C13.744 12.3401 13.9829 12.3985 14.2256 12.4C14.5158 12.4009 14.8004 12.3204 15.0471 12.1675C15.2705 12.0279 15.4546 11.8337 15.582 11.6031C15.7095 11.3726 15.7761 11.1134 15.7756 10.85V0Z" fill="#03EBB3"/>
</svg>
