<svg width="13" height="11" viewBox="0 0 13 11" fill="none" xmlns="http://www.w3.org/2000/svg">
<path d="M4.16816 7.94027L11.0471 1.06135C11.2608 0.847598 11.5329 0.740723 11.8632 0.740723C12.1936 0.740723 12.4656 0.847598 12.6794 1.06135C12.8931 1.2751 13 1.54715 13 1.87749C13 2.20784 12.8931 2.47989 12.6794 2.69364L4.9843 10.3887C4.75112 10.6219 4.47907 10.7385 4.16816 10.7385C3.85725 10.7385 3.5852 10.6219 3.35202 10.3887L0.320627 7.35732C0.106875 7.14356 0 6.87151 0 6.54117C0 6.21083 0.106875 5.93878 0.320627 5.72503C0.534379 5.51128 0.806427 5.4044 1.13677 5.4044C1.46711 5.4044 1.73916 5.51128 1.95291 5.72503L4.16816 7.94027Z" fill="#7B7F8C"/>
</svg>
