<svg width="26" height="31" viewBox="0 0 26 31" fill="none" xmlns="http://www.w3.org/2000/svg">
<path d="M8.48769 20.567L9.83333 29.1791C9.86777 29.406 9.85247 29.6377 9.78848 29.8581C9.7245 30.0785 9.61336 30.2823 9.46278 30.4555C9.31219 30.6287 9.12575 30.767 8.91638 30.861C8.707 30.955 8.47971 31.0023 8.25023 30.9997H1.9178C1.67734 31.001 1.43974 30.9475 1.22304 30.8433C1.00634 30.739 0.816237 30.5868 0.667152 30.3981C0.51095 30.2119 0.399713 29.9923 0.342062 29.7562C0.28441 29.5201 0.281891 29.2739 0.334699 29.0366L1.61701 23.8915C1.90743 22.7492 2.60564 21.7526 3.58007 21.0894L6.00222 19.5063C6.23156 19.3477 6.49874 19.2524 6.77674 19.2301C7.05474 19.2079 7.33367 19.2595 7.58532 19.3797C7.8217 19.4882 8.02769 19.6534 8.18508 19.8604C8.34246 20.0675 8.4464 20.3102 8.48769 20.567ZM25.6644 29.0366L24.3821 23.8915C24.0946 22.7436 23.3889 21.7443 22.4032 21.0894L19.9969 19.5063C19.7675 19.3477 19.5003 19.2524 19.2224 19.2301C18.9444 19.2079 18.6654 19.2595 18.4138 19.3797C18.1695 19.4855 17.9558 19.6513 17.7925 19.8616C17.6293 20.0719 17.5217 20.3199 17.4797 20.5829L16.1658 29.1791C16.1313 29.406 16.1466 29.6377 16.2106 29.8581C16.2746 30.0785 16.3857 30.2823 16.5363 30.4555C16.6869 30.6287 16.8733 30.767 17.0827 30.861C17.2921 30.955 17.5194 31.0023 17.7489 30.9997H24.0813C24.3217 31.001 24.5593 30.9475 24.776 30.8433C24.9927 30.739 25.1829 30.5868 25.3319 30.3981C25.4881 30.2119 25.5994 29.9923 25.657 29.7562C25.7147 29.5201 25.7172 29.2739 25.6644 29.0366Z" fill="#03EBB3"/>
<path d="M16.3552 2.04472L15.2312 0.920711C14.638 0.331001 13.8355 0 12.999 0C12.1626 0 11.3601 0.331001 10.7669 0.920711L9.64286 2.04472C7.70732 3.97768 6.25438 6.33942 5.40174 8.93858C4.54911 11.5377 4.32077 14.3012 4.73523 17.0051L6.68245 29.6699C6.74273 30.0418 6.93365 30.38 7.22093 30.6238C7.5082 30.8675 7.87298 31.0008 8.24972 30.9997H17.7484C18.1301 31.004 18.5006 30.8702 18.7915 30.6229C19.0825 30.3757 19.2742 30.0316 19.3315 29.6541L21.2787 16.9892C21.6885 14.2866 21.4564 11.5255 20.6011 8.9292C19.7457 6.33294 18.2912 3.9745 16.3552 2.04472Z" fill="#E6E6E6"/>
<path d="M12.9991 18.335C12.5793 18.335 12.1766 18.1682 11.8797 17.8713C11.5828 17.5744 11.416 17.1717 11.416 16.7519V12.0025C11.416 11.5827 11.5828 11.18 11.8797 10.8831C12.1766 10.5862 12.5793 10.4194 12.9991 10.4194C13.419 10.4194 13.8217 10.5862 14.1185 10.8831C14.4154 11.18 14.5822 11.5827 14.5822 12.0025V16.7519C14.5822 17.1717 14.4154 17.5744 14.1185 17.8713C13.8217 18.1682 13.419 18.335 12.9991 18.335Z" fill="#03EBB3"/>
</svg>
