<svg width="34" height="31" viewBox="0 0 34 31" fill="none" xmlns="http://www.w3.org/2000/svg">
<path d="M24.3575 0C22.8764 0.0243075 21.4255 0.42221 20.1392 1.15681C18.853 1.89141 17.773 2.93891 16.9996 4.20219C16.2261 2.93891 15.1462 1.89141 13.8599 1.15681C12.5736 0.42221 11.1227 0.0243075 9.64166 0C7.15487 0.1272 4.81787 1.22735 3.13529 3.06289C1.45271 4.89844 0.559545 7.3221 0.64866 9.81055C0.64866 24.1176 15.7242 30.6089 16.3619 30.8705C16.5636 30.956 16.7805 31 16.9996 31C17.2187 31 17.4355 30.956 17.6373 30.8705C18.2749 30.6743 33.3505 24.183 33.3505 9.81055C33.4396 7.3221 32.5464 4.89844 30.8639 3.06289C29.1813 1.22735 26.8443 0.1272 24.3575 0Z" fill="#03EBB3"/>
</svg>
