<svg width="125" height="20" viewBox="0 0 125 20" fill="none" xmlns="http://www.w3.org/2000/svg">
<path d="M10.6528 15.6797L16.0093 18.4815L14.9792 12.507L19.0996 8.3866L13.125 7.52132L10.6528 2L7.97456 7.43891L2 8.30419L6.12039 12.4246L5.29631 18.4815L10.6528 15.6797Z" fill="#F6921E" stroke="#F6921E" stroke-width="3" stroke-linecap="round" stroke-linejoin="round"/>
<path d="M36.7524 15.6797L42.1089 18.4815L41.0788 12.507L45.1992 8.3866L39.2247 7.52132L36.7524 2L34.0742 7.43891L28.0996 8.30419L32.22 12.4246L31.3959 18.4815L36.7524 15.6797Z" fill="#F6921E" stroke="#F6921E" stroke-width="3" stroke-linecap="round" stroke-linejoin="round"/>
<path d="M62.852 15.6797L68.2085 18.4815L67.1784 12.507L71.2988 8.3866L65.3243 7.52132L62.852 2L60.1738 7.43891L54.1992 8.30419L58.3196 12.4246L57.4955 18.4815L62.852 15.6797Z" fill="#F6921E" stroke="#F6921E" stroke-width="3" stroke-linecap="round" stroke-linejoin="round"/>
<path d="M88.9516 15.6797L94.3081 18.4815L93.278 12.507L97.3984 8.3866L91.4239 7.52132L88.9516 2L86.2734 7.43891L80.2988 8.30419L84.4192 12.4246L83.5951 18.4815L88.9516 15.6797Z" fill="#F6921E" stroke="#F6921E" stroke-width="3" stroke-linecap="round" stroke-linejoin="round"/>
<path d="M115.051 15.6797L120.408 18.4815L119.378 12.507L123.498 8.3866L117.523 7.52132L115.051 2L112.373 7.43891L106.398 8.30419L110.519 12.4246L109.695 18.4815L115.051 15.6797Z" fill="#F6921E" stroke="#F6921E" stroke-width="3" stroke-linecap="round" stroke-linejoin="round"/>
</svg>
