<svg width="35" height="35" viewBox="0 0 35 35" fill="none" xmlns="http://www.w3.org/2000/svg">
<path d="M11.2998 31.7104V20.6L17.4998 9.75L23.6998 20.6V31.7104" stroke="#03EBB3" stroke-width="3" stroke-linecap="round" stroke-linejoin="round"/>
<path d="M17.5 2C8.93935 2 2 8.93935 2 17.5C2 26.0606 8.93935 33 17.5 33C26.0606 33 33 26.0606 33 17.5C33 8.93935 26.0606 2 17.5 2Z" stroke="#E6E6E6" stroke-width="3.2" stroke-linecap="round" stroke-linejoin="round"/>
<path d="M11.2998 20.6001C11.2998 20.6001 13.0467 22.1501 14.3998 22.1501C15.753 22.1501 17.4998 20.6001 17.4998 20.6001C17.4998 20.6001 19.2467 22.1501 20.5998 22.1501C21.953 22.1501 23.6998 20.6001 23.6998 20.6001" stroke="#03EBB3" stroke-width="3" stroke-linecap="round" stroke-linejoin="round"/>
</svg>
