<svg width="143" height="44" viewBox="0 0 143 44" fill="none" xmlns="http://www.w3.org/2000/svg">
<path d="M26.8207 22.4451C26.1664 25.3807 24.4425 27.9675 21.9851 29.7014C19.5312 27.9717 17.8078 25.3917 17.1495 22.4626C16.4917 19.5272 16.9655 16.4517 18.4762 13.8505C18.826 13.238 19.3346 12.7314 19.9485 12.3841C20.5635 12.0331 21.2595 11.8486 21.9676 11.8487C22.6812 11.8438 23.3835 12.0264 24.0043 12.3783C24.6173 12.7292 25.1255 13.2375 25.4765 13.8505C26.9893 16.4444 27.4693 19.5131 26.8207 22.4451Z" fill="#03EBB3"/>
<path d="M31.2774 36.8691C34.3218 36.7485 37.2935 35.9195 39.9574 34.4511C37.9988 37.2802 35.3983 39.6091 32.3656 41.2454C29.1768 42.966 25.6102 43.8668 21.9867 43.8668C18.3633 43.8668 14.7967 42.966 11.6078 41.2454C8.58479 39.6143 5.99114 37.295 4.03469 34.478C6.44335 35.7981 9.10567 36.5959 11.8478 36.8164C12.3984 36.8633 12.9432 36.8867 13.4881 36.8867C16.4345 36.8867 19.3426 36.2212 21.9955 34.9405C24.8845 36.3336 28.0718 36.996 31.2774 36.8691Z" fill="url(#paint0_linear_10_3017)" stroke="#03EBB3" stroke-width="0.265782"/>
<path d="M43.98 22.0135C43.98 22.9492 43.9217 23.884 43.8054 24.8124L42.8802 26.1508C41.5011 28.1343 39.6597 29.7521 37.5151 30.8642C36.4388 31.422 35.2999 31.8498 34.1226 32.1385C32.944 32.4289 31.7345 32.5755 30.5206 32.575C28.9769 32.578 27.442 32.3425 25.9702 31.8767C28.5719 29.5365 30.351 26.421 31.0443 22.9911C31.7987 19.2154 31.1796 15.2945 29.2986 11.935L29.1823 11.7313C28.4532 10.4874 27.407 9.4593 26.1506 8.75197C24.8809 8.03882 23.4491 7.66424 21.9929 7.66424C20.5366 7.66424 19.1049 8.03882 17.8352 8.75197C16.5736 9.47051 15.5269 10.5132 14.8035 11.772C12.9565 14.9887 12.2706 18.7423 12.8606 22.4043C13.4507 26.0664 15.2808 29.4145 18.0447 31.8883C15.172 32.7829 12.0991 32.8093 9.21146 31.964C5.93286 31.0053 3.08208 28.9514 1.13469 26.145L0.180378 24.8008C-0.204026 21.8181 0.0274674 18.7882 0.860547 15.8985C1.69363 13.0088 3.11058 10.3207 5.02382 8.00041C6.93705 5.68009 9.30589 3.77688 11.9839 2.40843C14.6619 1.03998 17.5921 0.23539 20.5934 0.0443938C23.5947 -0.146602 26.6033 0.280059 29.4332 1.298C32.263 2.31594 34.854 3.90352 37.046 5.9626C39.2379 8.02167 40.9842 10.5085 42.1768 13.2692C43.3695 16.03 43.9832 19.0061 43.98 22.0135Z" fill="#03EBB3"/>
<path d="M71.9569 32.4488C69.7156 32.4488 67.6283 32.0426 65.6952 31.2301C63.762 30.4176 62.067 29.2829 60.6101 27.826C59.1532 26.3692 58.0185 24.6601 57.206 22.6989C56.3935 20.7378 55.9873 18.5945 55.9873 16.2691C55.9873 13.9437 56.3795 11.8004 57.164 9.8392C57.9485 7.85 59.0552 6.14097 60.484 4.71211C61.9129 3.25523 63.5799 2.13455 65.485 1.35008C67.4182 0.537592 69.5195 0.131348 71.7888 0.131348C74.0582 0.131348 76.0894 0.509575 77.8825 1.26603C79.7036 2.02249 81.2445 3.0311 82.5053 4.29185C83.766 5.55261 84.6626 6.95346 85.1949 8.49439L79.4374 11.2681C78.9051 9.75515 77.9665 8.5084 76.6217 7.5278C75.3049 6.5192 73.694 6.01489 71.7888 6.01489C69.9397 6.01489 68.3147 6.44915 66.9139 7.31768C65.513 8.1862 64.4204 9.39093 63.6359 10.9319C62.8795 12.4448 62.5012 14.2238 62.5012 16.2691C62.5012 18.3143 62.9075 20.1074 63.72 21.6483C64.5325 23.1892 65.6391 24.394 67.04 25.2625C68.4688 26.131 70.1078 26.5653 71.9569 26.5653C73.3858 26.5653 74.7166 26.2991 75.9493 25.7668C77.2101 25.2065 78.2187 24.408 78.9752 23.3714C79.7596 22.3347 80.1519 21.088 80.1519 19.6311V17.0255L83.1357 19.547H71.7888V14.0838H86.6658V17.4038C86.6658 19.9533 86.2455 22.1806 85.405 24.0858C84.5645 25.9629 83.4298 27.5319 82.001 28.7926C80.6001 30.0254 79.0172 30.9499 77.2521 31.5663C75.5151 32.1546 73.75 32.4488 71.9569 32.4488Z" fill="#353535"/>
<path d="M96.4876 32.4488C94.8346 32.4488 93.4057 32.1827 92.201 31.6503C90.9963 31.118 90.0717 30.3616 89.4273 29.381C88.7829 28.3724 88.4607 27.1816 88.4607 25.8088C88.4607 24.52 88.7549 23.3854 89.3433 22.4048C89.9316 21.3962 90.8282 20.5557 92.0329 19.8833C93.2656 19.2108 94.7925 18.7346 96.6136 18.4544L103.632 17.3197V21.9425L97.7483 22.9931C96.8518 23.1612 96.1654 23.4554 95.6891 23.8757C95.2128 24.2679 94.9747 24.8422 94.9747 25.5987C94.9747 26.2991 95.2408 26.8454 95.7731 27.2377C96.3055 27.6299 96.9639 27.826 97.7483 27.826C98.785 27.826 99.6955 27.6019 100.48 27.1536C101.264 26.7054 101.867 26.103 102.287 25.3465C102.735 24.5621 102.959 23.7076 102.959 22.783V16.8154C102.959 15.9469 102.609 15.2184 101.909 14.6301C101.236 14.0417 100.312 13.7476 99.1352 13.7476C98.0145 13.7476 97.0199 14.0557 96.1514 14.6721C95.3109 15.2885 94.6945 16.101 94.3023 17.1096L89.2592 14.7141C89.7075 13.4254 90.4219 12.3187 91.4025 11.3941C92.3831 10.4696 93.5598 9.75515 94.9326 9.25084C96.3055 8.74654 97.8044 8.49439 99.4293 8.49439C101.363 8.49439 103.072 8.8446 104.556 9.54502C106.041 10.2454 107.19 11.226 108.003 12.4868C108.843 13.7195 109.263 15.1624 109.263 16.8154V31.9445H103.38V28.2463L104.809 27.9941C104.136 29.0027 103.394 29.8433 102.581 30.5157C101.769 31.16 100.858 31.6363 99.8496 31.9445C98.841 32.2807 97.7203 32.4488 96.4876 32.4488Z" fill="#353535"/>
<path d="M113.046 31.9445V8.99869H119.35V31.9445H113.046ZM113.046 6.93945V0.63565H119.35V6.93945H113.046Z" fill="#353535"/>
<path d="M130.224 32.4488C128.571 32.4488 127.143 32.1827 125.938 31.6503C124.733 31.118 123.809 30.3616 123.164 29.381C122.52 28.3724 122.198 27.1816 122.198 25.8088C122.198 24.52 122.492 23.3854 123.08 22.4048C123.668 21.3962 124.565 20.5557 125.77 19.8833C127.002 19.2108 128.529 18.7346 130.35 18.4544L137.369 17.3197V21.9425L131.485 22.9931C130.589 23.1612 129.902 23.4554 129.426 23.8757C128.95 24.2679 128.711 24.8422 128.711 25.5987C128.711 26.2991 128.978 26.8454 129.51 27.2377C130.042 27.6299 130.701 27.826 131.485 27.826C132.522 27.826 133.432 27.6019 134.217 27.1536C135.001 26.7054 135.604 26.103 136.024 25.3465C136.472 24.5621 136.696 23.7076 136.696 22.783V16.8154C136.696 15.9469 136.346 15.2184 135.646 14.6301C134.973 14.0417 134.049 13.7476 132.872 13.7476C131.751 13.7476 130.757 14.0557 129.888 14.6721C129.048 15.2885 128.431 16.101 128.039 17.1096L122.996 14.7141C123.444 13.4254 124.159 12.3187 125.139 11.3941C126.12 10.4696 127.297 9.75515 128.669 9.25084C130.042 8.74654 131.541 8.49439 133.166 8.49439C135.099 8.49439 136.808 8.8446 138.293 9.54502C139.778 10.2454 140.927 11.226 141.739 12.4868C142.58 13.7195 143 15.1624 143 16.8154V31.9445H137.117V28.2463L138.545 27.9941C137.873 29.0027 137.131 29.8433 136.318 30.5157C135.506 31.16 134.595 31.6363 133.586 31.9445C132.578 32.2807 131.457 32.4488 130.224 32.4488Z" fill="#353535"/>
<path d="M55.9873 42.1217V36.209H59.7968V36.8042H56.6222V38.8598H59.6381V39.455H56.6222V41.5265H59.7968V42.1217H55.9873Z" fill="#5E6282"/>
<path d="M62.7913 42.217C62.3839 42.217 62.0268 42.1138 61.7199 41.9074C61.413 41.7011 61.1908 41.4207 61.0532 41.0662L61.5532 40.8281C61.6749 41.0873 61.8442 41.2937 62.0612 41.4471C62.2834 41.6006 62.5268 41.6773 62.7913 41.6773C63.0453 41.6773 63.2596 41.6164 63.4342 41.4947C63.6088 41.3678 63.6961 41.2037 63.6961 41.0027C63.6961 40.8545 63.6538 40.7381 63.5691 40.6535C63.4845 40.5635 63.3866 40.4947 63.2755 40.4471C63.1643 40.3995 63.0665 40.3651 62.9818 40.3439L62.3707 40.1693C61.9792 40.0582 61.6961 39.9021 61.5215 39.7011C61.3469 39.5 61.2596 39.2672 61.2596 39.0027C61.2596 38.754 61.3231 38.5371 61.4501 38.3519C61.577 38.1667 61.749 38.0238 61.9659 37.9233C62.1829 37.8228 62.4236 37.7725 62.6882 37.7725C63.0479 37.7725 63.3733 37.8677 63.6643 38.0582C63.9606 38.2434 64.1696 38.5027 64.2913 38.836L63.7834 39.0741C63.6776 38.836 63.5241 38.6508 63.3231 38.5185C63.1273 38.381 62.9077 38.3122 62.6643 38.3122C62.4262 38.3122 62.2358 38.373 62.0929 38.4947C61.9501 38.6164 61.8786 38.7699 61.8786 38.955C61.8786 39.0979 61.9157 39.2117 61.9897 39.2963C62.0638 39.381 62.1485 39.4445 62.2437 39.4868C62.3442 39.5291 62.4315 39.5609 62.5056 39.582L63.212 39.7884C63.5559 39.8889 63.8231 40.045 64.0136 40.2566C64.2093 40.4683 64.3072 40.717 64.3072 41.0027C64.3072 41.2355 64.2411 41.4445 64.1088 41.6297C63.9818 41.8148 63.8046 41.9603 63.577 42.0662C63.3495 42.1667 63.0876 42.217 62.7913 42.217Z" fill="#5E6282"/>
<path d="M67.5357 42.1693C67.1547 42.1693 66.8611 42.0582 66.6547 41.836C66.4484 41.6138 66.3452 41.2963 66.3452 40.8836V38.463H65.5595V37.8677H65.7579C65.9378 37.8677 66.0807 37.8095 66.1865 37.6931C66.2923 37.5714 66.3452 37.4207 66.3452 37.2408V36.8836H66.9405V37.8677H67.877V38.463H66.9405V40.8836C66.9405 41.0265 66.9616 41.1535 67.004 41.2646C67.0463 41.3704 67.1177 41.4551 67.2182 41.5185C67.3241 41.582 67.4643 41.6138 67.6389 41.6138C67.6812 41.6138 67.7315 41.6111 67.7897 41.6058C67.8479 41.6006 67.8981 41.5953 67.9405 41.59V42.1217C67.877 42.1376 67.8055 42.1482 67.7262 42.1535C67.6468 42.1641 67.5833 42.1693 67.5357 42.1693Z" fill="#5E6282"/>
<path d="M69.5412 42.1217V37.8677H70.1365V38.5662L70.0571 38.463C70.1576 38.2619 70.3084 38.1032 70.5095 37.9868C70.7158 37.8704 70.9645 37.8122 71.2555 37.8122H71.5254V38.4074H71.1523C70.8455 38.4074 70.5994 38.5027 70.4142 38.6931C70.2291 38.8836 70.1365 39.1535 70.1365 39.5027V42.1217H69.5412Z" fill="#5E6282"/>
<path d="M74.0086 42.217C73.7388 42.217 73.498 42.1667 73.2864 42.0662C73.0748 41.9603 72.9081 41.8175 72.7864 41.6376C72.6647 41.4577 72.6039 41.2514 72.6039 41.0185C72.6039 40.7963 72.6515 40.5953 72.7467 40.4154C72.842 40.2302 72.9901 40.0741 73.1912 39.9471C73.3922 39.8201 73.6488 39.7302 73.961 39.6773L75.6277 39.3995V39.9392L74.1039 40.1931C73.797 40.2461 73.5748 40.3439 73.4372 40.4868C73.3049 40.6297 73.2388 40.799 73.2388 40.9947C73.2388 41.1852 73.3129 41.3466 73.461 41.4789C73.6144 41.6111 73.8102 41.6773 74.0483 41.6773C74.3393 41.6773 74.5933 41.6164 74.8102 41.4947C75.0271 41.3678 75.1965 41.1984 75.3181 40.9868C75.4398 40.7752 75.5007 40.5397 75.5007 40.2804V39.2011C75.5007 38.9471 75.4081 38.7408 75.2229 38.582C75.0377 38.4233 74.797 38.3439 74.5007 38.3439C74.2414 38.3439 74.0139 38.4101 73.8181 38.5423C73.6224 38.6693 73.4769 38.836 73.3816 39.0423L72.842 38.7487C72.9213 38.5688 73.0457 38.4048 73.215 38.2566C73.3896 38.1085 73.588 37.9921 73.8102 37.9074C74.0324 37.8175 74.2626 37.7725 74.5007 37.7725C74.8129 37.7725 75.088 37.8334 75.3261 37.955C75.5695 38.0767 75.7573 38.2461 75.8896 38.463C76.0271 38.6746 76.0959 38.9207 76.0959 39.2011V42.1217H75.5007V41.2725L75.588 41.3598C75.5139 41.5185 75.3975 41.664 75.2388 41.7963C75.0853 41.9233 74.9028 42.0265 74.6912 42.1058C74.4848 42.1799 74.2573 42.217 74.0086 42.217Z" fill="#5E6282"/>
<path d="M79.4253 42.1693C79.0444 42.1693 78.7507 42.0582 78.5443 41.836C78.338 41.6138 78.2348 41.2963 78.2348 40.8836V38.463H77.4491V37.8677H77.6475C77.8274 37.8677 77.9703 37.8095 78.0761 37.6931C78.1819 37.5714 78.2348 37.4207 78.2348 37.2408V36.8836H78.8301V37.8677H79.7666V38.463H78.8301V40.8836C78.8301 41.0265 78.8512 41.1535 78.8936 41.2646C78.9359 41.3704 79.0073 41.4551 79.1078 41.5185C79.2137 41.582 79.3539 41.6138 79.5285 41.6138C79.5708 41.6138 79.6211 41.6111 79.6793 41.6058C79.7375 41.6006 79.7877 41.5953 79.8301 41.59V42.1217C79.7666 42.1376 79.6951 42.1482 79.6158 42.1535C79.5364 42.1641 79.4729 42.1693 79.4253 42.1693Z" fill="#5E6282"/>
<path d="M83.2123 42.217C82.8155 42.217 82.4557 42.1217 82.133 41.9312C81.8155 41.7355 81.5642 41.4683 81.379 41.1297C81.1938 40.791 81.1012 40.4074 81.1012 39.9789C81.1012 39.5503 81.1912 39.172 81.3711 38.8439C81.551 38.5106 81.7943 38.2487 82.1012 38.0582C82.4134 37.8677 82.7626 37.7725 83.1488 37.7725C83.4557 37.7725 83.7282 37.8307 83.9663 37.9471C84.2097 38.0582 84.416 38.2117 84.5854 38.4074C84.7547 38.5979 84.8843 38.8148 84.9742 39.0582C85.0642 39.2963 85.1092 39.5424 85.1092 39.7963C85.1092 39.8492 85.1065 39.9101 85.1012 39.9789C85.0959 40.0424 85.088 40.1085 85.0774 40.1773H81.4822V39.6217H84.7361L84.4504 39.8598C84.4981 39.5688 84.4637 39.3095 84.3473 39.082C84.2361 38.8492 84.0748 38.6667 83.8631 38.5344C83.6515 38.3968 83.4134 38.3281 83.1488 38.3281C82.8843 38.3281 82.6383 38.3968 82.4107 38.5344C82.1885 38.672 82.0139 38.8651 81.8869 39.1138C81.7599 39.3572 81.7097 39.6482 81.7361 39.9868C81.7097 40.3254 81.7626 40.6217 81.8949 40.8757C82.0324 41.1244 82.2176 41.3175 82.4504 41.4551C82.6885 41.5926 82.9425 41.6614 83.2123 41.6614C83.5245 41.6614 83.7864 41.5873 83.998 41.4392C84.2097 41.291 84.3816 41.1058 84.5139 40.8836L85.0219 41.1535C84.9372 41.3439 84.8076 41.5212 84.633 41.6852C84.4584 41.8439 84.2494 41.9736 84.006 42.0741C83.7679 42.1693 83.5033 42.217 83.2123 42.217Z" fill="#5E6282"/>
<path d="M88.7301 43.8678C88.4391 43.8678 88.1692 43.8228 87.9206 43.7328C87.6772 43.6429 87.4655 43.5186 87.2856 43.3598C87.111 43.2064 86.9761 43.0265 86.8809 42.8201L87.4285 42.5265C87.5131 42.7275 87.6639 42.9021 87.8809 43.0503C88.0978 43.1984 88.3756 43.2725 88.7142 43.2725C88.9735 43.2725 89.2116 43.2223 89.4285 43.1217C89.6454 43.0212 89.82 42.873 89.9523 42.6773C90.0846 42.4815 90.1507 42.2408 90.1507 41.9551V41.0106L90.246 41.0979C90.0978 41.4048 89.8782 41.6429 89.5872 41.8122C89.2962 41.9762 88.9788 42.0582 88.6348 42.0582C88.238 42.0582 87.8809 41.963 87.5634 41.7725C87.2459 41.582 86.9946 41.3254 86.8094 41.0027C86.6295 40.6746 86.5396 40.3122 86.5396 39.9154C86.5396 39.5132 86.6295 39.1508 86.8094 38.8281C86.9946 38.5053 87.2433 38.2487 87.5555 38.0582C87.8729 37.8677 88.2327 37.7725 88.6348 37.7725C88.9788 37.7725 89.2909 37.8519 89.5714 38.0106C89.8571 38.1693 90.0819 38.3836 90.246 38.6535L90.1507 38.8201V37.8677H90.746V41.9551C90.746 42.3201 90.6587 42.6455 90.4841 42.9312C90.3147 43.2223 90.0766 43.4498 89.7698 43.6138C89.4682 43.7831 89.1216 43.8678 88.7301 43.8678ZM88.6666 41.463C88.9417 41.463 89.1904 41.3942 89.4126 41.2566C89.6348 41.1138 89.8121 40.926 89.9444 40.6931C90.0819 40.4551 90.1507 40.1958 90.1507 39.9154C90.1507 39.6349 90.0819 39.3783 89.9444 39.1455C89.8121 38.9074 89.6348 38.7196 89.4126 38.582C89.1904 38.4392 88.9417 38.3677 88.6666 38.3677C88.3862 38.3677 88.1322 38.4392 87.9047 38.582C87.6772 38.7196 87.4973 38.9048 87.365 39.1376C87.238 39.3704 87.1745 39.6297 87.1745 39.9154C87.1745 40.1958 87.238 40.4551 87.365 40.6931C87.4973 40.926 87.6745 41.1138 87.8967 41.2566C88.1243 41.3942 88.3809 41.463 88.6666 41.463Z" fill="#5E6282"/>
<path d="M92.5246 42.1217V37.8677H93.1199V42.1217H92.5246ZM92.5246 37.082V36.209H93.1199V37.082H92.5246Z" fill="#5E6282"/>
<path d="M96.124 42.217C95.8541 42.217 95.6134 42.1667 95.4017 42.0662C95.1901 41.9603 95.0234 41.8175 94.9017 41.6376C94.78 41.4577 94.7192 41.2514 94.7192 41.0185C94.7192 40.7963 94.7668 40.5953 94.862 40.4154C94.9573 40.2302 95.1054 40.0741 95.3065 39.9471C95.5075 39.8201 95.7642 39.7302 96.0763 39.6773L97.743 39.3995V39.9392L96.2192 40.1931C95.9123 40.2461 95.6901 40.3439 95.5525 40.4868C95.4202 40.6297 95.3541 40.799 95.3541 40.9947C95.3541 41.1852 95.4282 41.3466 95.5763 41.4789C95.7298 41.6111 95.9255 41.6773 96.1636 41.6773C96.4546 41.6773 96.7086 41.6164 96.9255 41.4947C97.1425 41.3678 97.3118 41.1984 97.4335 40.9868C97.5552 40.7752 97.616 40.5397 97.616 40.2804V39.2011C97.616 38.9471 97.5234 38.7408 97.3382 38.582C97.1531 38.4233 96.9123 38.3439 96.616 38.3439C96.3568 38.3439 96.1292 38.4101 95.9335 38.5423C95.7377 38.6693 95.5922 38.836 95.497 39.0423L94.9573 38.7487C95.0366 38.5688 95.161 38.4048 95.3303 38.2566C95.5049 38.1085 95.7033 37.9921 95.9255 37.9074C96.1478 37.8175 96.3779 37.7725 96.616 37.7725C96.9282 37.7725 97.2033 37.8334 97.4414 37.955C97.6848 38.0767 97.8726 38.2461 98.0049 38.463C98.1425 38.6746 98.2113 38.9207 98.2113 39.2011V42.1217H97.616V41.2725L97.7033 41.3598C97.6292 41.5185 97.5128 41.664 97.3541 41.7963C97.2007 41.9233 97.0181 42.0265 96.8065 42.1058C96.6001 42.1799 96.3726 42.217 96.124 42.217Z" fill="#5E6282"/>
<path d="M101.467 42.217C101.06 42.217 100.703 42.1138 100.396 41.9074C100.089 41.7011 99.8668 41.4207 99.7292 41.0662L100.229 40.8281C100.351 41.0873 100.52 41.2937 100.737 41.4471C100.959 41.6006 101.203 41.6773 101.467 41.6773C101.721 41.6773 101.936 41.6164 102.11 41.4947C102.285 41.3678 102.372 41.2037 102.372 41.0027C102.372 40.8545 102.33 40.7381 102.245 40.6535C102.16 40.5635 102.063 40.4947 101.951 40.4471C101.84 40.3995 101.742 40.3651 101.658 40.3439L101.047 40.1693C100.655 40.0582 100.372 39.9021 100.197 39.7011C100.023 39.5 99.9356 39.2672 99.9356 39.0027C99.9356 38.754 99.9991 38.5371 100.126 38.3519C100.253 38.1667 100.425 38.0238 100.642 37.9233C100.859 37.8228 101.1 37.7725 101.364 37.7725C101.724 37.7725 102.049 37.8677 102.34 38.0582C102.637 38.2434 102.846 38.5027 102.967 38.836L102.459 39.0741C102.354 38.836 102.2 38.6508 101.999 38.5185C101.803 38.381 101.584 38.3122 101.34 38.3122C101.102 38.3122 100.912 38.373 100.769 38.4947C100.626 38.6164 100.555 38.7699 100.555 38.955C100.555 39.0979 100.592 39.2117 100.666 39.2963C100.74 39.381 100.824 39.4445 100.92 39.4868C101.02 39.5291 101.108 39.5609 101.182 39.582L101.888 39.7884C102.232 39.8889 102.499 40.045 102.69 40.2566C102.885 40.4683 102.983 40.717 102.983 41.0027C102.983 41.2355 102.917 41.4445 102.785 41.6297C102.658 41.8148 102.481 41.9603 102.253 42.0662C102.026 42.1667 101.764 42.217 101.467 42.217Z" fill="#5E6282"/>
<path d="M106.576 42.1217V36.209H108.521C109.108 36.209 109.619 36.3307 110.052 36.5741C110.486 36.8122 110.822 37.1535 111.06 37.5979C111.298 38.0371 111.417 38.5582 111.417 39.1614C111.417 39.7593 111.298 40.2804 111.06 40.7249C110.822 41.1693 110.486 41.5133 110.052 41.7566C109.619 42 109.108 42.1217 108.521 42.1217H106.576ZM107.211 41.5265H108.521C108.976 41.5265 109.37 41.4312 109.703 41.2408C110.037 41.045 110.293 40.7699 110.473 40.4154C110.658 40.0609 110.751 39.6429 110.751 39.1614C110.751 38.6799 110.658 38.2646 110.473 37.9154C110.288 37.5609 110.029 37.2884 109.695 37.0979C109.362 36.9021 108.97 36.8042 108.521 36.8042H107.211V41.5265Z" fill="#5E6282"/>
<path d="M112.935 42.1217V37.8677H113.53V42.1217H112.935ZM112.935 37.082V36.209H113.53V37.082H112.935Z" fill="#5E6282"/>
<path d="M117.32 43.8678C117.029 43.8678 116.759 43.8228 116.51 43.7328C116.267 43.6429 116.055 43.5186 115.875 43.3598C115.701 43.2064 115.566 43.0265 115.471 42.8201L116.018 42.5265C116.103 42.7275 116.254 42.9021 116.471 43.0503C116.688 43.1984 116.965 43.2725 117.304 43.2725C117.563 43.2725 117.801 43.2223 118.018 43.1217C118.235 43.0212 118.41 42.873 118.542 42.6773C118.674 42.4815 118.741 42.2408 118.741 41.9551V41.0106L118.836 41.0979C118.688 41.4048 118.468 41.6429 118.177 41.8122C117.886 41.9762 117.569 42.0582 117.225 42.0582C116.828 42.0582 116.471 41.963 116.153 41.7725C115.836 41.582 115.584 41.3254 115.399 41.0027C115.219 40.6746 115.129 40.3122 115.129 39.9154C115.129 39.5132 115.219 39.1508 115.399 38.8281C115.584 38.5053 115.833 38.2487 116.145 38.0582C116.463 37.8677 116.823 37.7725 117.225 37.7725C117.569 37.7725 117.881 37.8519 118.161 38.0106C118.447 38.1693 118.672 38.3836 118.836 38.6535L118.741 38.8201V37.8677H119.336V41.9551C119.336 42.3201 119.248 42.6455 119.074 42.9312C118.905 43.2223 118.666 43.4498 118.36 43.6138C118.058 43.7831 117.711 43.8678 117.32 43.8678ZM117.256 41.463C117.532 41.463 117.78 41.3942 118.002 41.2566C118.225 41.1138 118.402 40.926 118.534 40.6931C118.672 40.4551 118.741 40.1958 118.741 39.9154C118.741 39.6349 118.672 39.3783 118.534 39.1455C118.402 38.9074 118.225 38.7196 118.002 38.582C117.78 38.4392 117.532 38.3677 117.256 38.3677C116.976 38.3677 116.722 38.4392 116.494 38.582C116.267 38.7196 116.087 38.9048 115.955 39.1376C115.828 39.3704 115.764 39.6297 115.764 39.9154C115.764 40.1958 115.828 40.4551 115.955 40.6931C116.087 40.926 116.264 41.1138 116.487 41.2566C116.714 41.3942 116.971 41.463 117.256 41.463Z" fill="#5E6282"/>
<path d="M121.114 42.1217V37.8677H121.71V42.1217H121.114ZM121.114 37.082V36.209H121.71V37.082H121.114Z" fill="#5E6282"/>
<path d="M125.111 42.1693C124.73 42.1693 124.436 42.0582 124.23 41.836C124.023 41.6138 123.92 41.2963 123.92 40.8836V38.463H123.134V37.8677H123.333C123.513 37.8677 123.656 37.8095 123.761 37.6931C123.867 37.5714 123.92 37.4207 123.92 37.2408V36.8836H124.515V37.8677H125.452V38.463H124.515V40.8836C124.515 41.0265 124.536 41.1535 124.579 41.2646C124.621 41.3704 124.693 41.4551 124.793 41.5185C124.899 41.582 125.039 41.6138 125.214 41.6138C125.256 41.6138 125.306 41.6111 125.365 41.6058C125.423 41.6006 125.473 41.5953 125.515 41.59V42.1217C125.452 42.1376 125.38 42.1482 125.301 42.1535C125.222 42.1641 125.158 42.1693 125.111 42.1693Z" fill="#5E6282"/>
<path d="M128.269 42.217C127.999 42.217 127.758 42.1667 127.547 42.0662C127.335 41.9603 127.168 41.8175 127.047 41.6376C126.925 41.4577 126.864 41.2514 126.864 41.0185C126.864 40.7963 126.912 40.5953 127.007 40.4154C127.102 40.2302 127.25 40.0741 127.451 39.9471C127.652 39.8201 127.909 39.7302 128.221 39.6773L129.888 39.3995V39.9392L128.364 40.1931C128.057 40.2461 127.835 40.3439 127.697 40.4868C127.565 40.6297 127.499 40.799 127.499 40.9947C127.499 41.1852 127.573 41.3466 127.721 41.4789C127.875 41.6111 128.07 41.6773 128.308 41.6773C128.599 41.6773 128.853 41.6164 129.07 41.4947C129.287 41.3678 129.457 41.1984 129.578 40.9868C129.7 40.7752 129.761 40.5397 129.761 40.2804V39.2011C129.761 38.9471 129.668 38.7408 129.483 38.582C129.298 38.4233 129.057 38.3439 128.761 38.3439C128.502 38.3439 128.274 38.4101 128.078 38.5423C127.883 38.6693 127.737 38.836 127.642 39.0423L127.102 38.7487C127.181 38.5688 127.306 38.4048 127.475 38.2566C127.65 38.1085 127.848 37.9921 128.07 37.9074C128.293 37.8175 128.523 37.7725 128.761 37.7725C129.073 37.7725 129.348 37.8334 129.586 37.955C129.83 38.0767 130.017 38.2461 130.15 38.463C130.287 38.6746 130.356 38.9207 130.356 39.2011V42.1217H129.761V41.2725L129.848 41.3598C129.774 41.5185 129.658 41.664 129.499 41.7963C129.345 41.9233 129.163 42.0265 128.951 42.1058C128.745 42.1799 128.517 42.217 128.269 42.217Z" fill="#5E6282"/>
<path d="M132.136 42.1217V36.1138H132.731V42.1217H132.136Z" fill="#5E6282"/>
<path d="M136.442 42.217C136.045 42.217 135.685 42.1217 135.362 41.9312C135.045 41.7355 134.793 41.4683 134.608 41.1297C134.423 40.791 134.331 40.4074 134.331 39.9789C134.331 39.5503 134.42 39.172 134.6 38.8439C134.78 38.5106 135.024 38.2487 135.331 38.0582C135.643 37.8677 135.992 37.7725 136.378 37.7725C136.685 37.7725 136.958 37.8307 137.196 37.9471C137.439 38.0582 137.645 38.2117 137.815 38.4074C137.984 38.5979 138.114 38.8148 138.204 39.0582C138.293 39.2963 138.338 39.5424 138.338 39.7963C138.338 39.8492 138.336 39.9101 138.331 39.9789C138.325 40.0424 138.317 40.1085 138.307 40.1773H134.711V39.6217H137.965L137.68 39.8598C137.727 39.5688 137.693 39.3095 137.577 39.082C137.465 38.8492 137.304 38.6667 137.092 38.5344C136.881 38.3968 136.643 38.3281 136.378 38.3281C136.114 38.3281 135.868 38.3968 135.64 38.5344C135.418 38.672 135.243 38.8651 135.116 39.1138C134.989 39.3572 134.939 39.6482 134.965 39.9868C134.939 40.3254 134.992 40.6217 135.124 40.8757C135.262 41.1244 135.447 41.3175 135.68 41.4551C135.918 41.5926 136.172 41.6614 136.442 41.6614C136.754 41.6614 137.016 41.5873 137.227 41.4392C137.439 41.291 137.611 41.1058 137.743 40.8836L138.251 41.1535C138.167 41.3439 138.037 41.5212 137.862 41.6852C137.688 41.8439 137.479 41.9736 137.235 42.0741C136.997 42.1693 136.733 42.217 136.442 42.217Z" fill="#5E6282"/>
<path d="M141.42 42.217C141.012 42.217 140.655 42.1138 140.348 41.9074C140.041 41.7011 139.819 41.4207 139.682 41.0662L140.182 40.8281C140.303 41.0873 140.473 41.2937 140.69 41.4471C140.912 41.6006 141.155 41.6773 141.42 41.6773C141.674 41.6773 141.888 41.6164 142.063 41.4947C142.237 41.3678 142.324 41.2037 142.324 41.0027C142.324 40.8545 142.282 40.7381 142.197 40.6535C142.113 40.5635 142.015 40.4947 141.904 40.4471C141.793 40.3995 141.695 40.3651 141.61 40.3439L140.999 40.1693C140.608 40.0582 140.324 39.9021 140.15 39.7011C139.975 39.5 139.888 39.2672 139.888 39.0027C139.888 38.754 139.951 38.5371 140.078 38.3519C140.205 38.1667 140.377 38.0238 140.594 37.9233C140.811 37.8228 141.052 37.7725 141.317 37.7725C141.676 37.7725 142.002 37.8677 142.293 38.0582C142.589 38.2434 142.798 38.5027 142.92 38.836L142.412 39.0741C142.306 38.836 142.153 38.6508 141.951 38.5185C141.756 38.381 141.536 38.3122 141.293 38.3122C141.055 38.3122 140.864 38.373 140.721 38.4947C140.578 38.6164 140.507 38.7699 140.507 38.955C140.507 39.0979 140.544 39.2117 140.618 39.2963C140.692 39.381 140.777 39.4445 140.872 39.4868C140.973 39.5291 141.06 39.5609 141.134 39.582L141.84 39.7884C142.184 39.8889 142.451 40.045 142.642 40.2566C142.838 40.4683 142.936 40.717 142.936 41.0027C142.936 41.2355 142.869 41.4445 142.737 41.6297C142.61 41.8148 142.433 41.9603 142.205 42.0662C141.978 42.1667 141.716 42.217 141.42 42.217Z" fill="#5E6282"/>
<defs>
<linearGradient id="paint0_linear_10_3017" x1="21.9838" y1="34.0538" x2="21.9838" y2="43.9985" gradientUnits="userSpaceOnUse">
<stop stop-color="#02EACB"/>
<stop offset="1" stop-color="#19F6A4"/>
</linearGradient>
</defs>
</svg>
