<svg width="35" height="35" viewBox="0 0 35 35" fill="none" xmlns="http://www.w3.org/2000/svg">
<path fill-rule="evenodd" clip-rule="evenodd" d="M1.02513 8.02513C1.6815 7.36875 2.57174 7 3.5 7H12.25C13.2165 7 14 7.7835 14 8.75V26.25C14 27.2165 13.2165 28 12.25 28H3.5C2.57175 28 1.68151 27.6313 1.02513 26.9749C0.368748 26.3185 0 25.4283 0 24.5V10.5C0 9.57174 0.368749 8.6815 1.02513 8.02513ZM3.5 17.5V24.5H10.5V17.5H3.5ZM10.5 14H3.5V10.5L10.5 10.5V14Z" fill="#EFEFEF"/>
<path fill-rule="evenodd" clip-rule="evenodd" d="M11.5251 1.02513C12.1815 0.368749 13.0717 0 14 0H31.5C32.4283 0 33.3185 0.368748 33.9749 1.02513C34.6313 1.68151 35 2.57175 35 3.5V31.5C35 32.4283 34.6313 33.3185 33.9749 33.9749C33.3185 34.6313 32.4283 35 31.5 35H14C13.0717 35 12.1815 34.6313 11.5251 33.9749C10.8687 33.3185 10.5 32.4283 10.5 31.5V3.5C10.5 2.57174 10.8687 1.6815 11.5251 1.02513ZM17.8836 3.5L18.4273 5.67444C18.622 6.45348 19.322 7 20.125 7H25.375C26.178 7 26.878 6.45348 27.0727 5.67444L27.6164 3.5H31.5V31.5H14L14 3.5H17.8836Z" fill="#03EBB3"/>
</svg>
