<svg width="35" height="35" viewBox="0 0 35 35" fill="none" xmlns="http://www.w3.org/2000/svg">
<path fill-rule="evenodd" clip-rule="evenodd" d="M11.2508 21.6871C11.44 20.9303 12.1199 20.3994 12.9 20.3994H23.1C23.8801 20.3994 24.5601 20.9303 24.7493 21.6871L26.4493 28.4871C26.5762 28.995 26.4621 29.533 26.14 29.9456C25.8178 30.3582 25.3235 30.5994 24.8 30.5994H11.2C10.6765 30.5994 10.1822 30.3582 9.86007 29.9456C9.5379 29.533 9.42381 28.995 9.55077 28.4871L11.2508 21.6871ZM14.2273 23.7994L13.3773 27.1994H22.6227L21.7727 23.7994H14.2273Z" fill="#E6E6E6"/>
<path fill-rule="evenodd" clip-rule="evenodd" d="M1.99584 0.995837C2.63346 0.358214 3.49826 0 4.4 0H31.6C32.5017 0 33.3665 0.358213 34.0042 0.995837C34.6418 1.63346 35 2.49827 35 3.4V20.4C35 21.3017 34.6418 22.1665 34.0042 22.8042C33.3665 23.4418 32.5017 23.8 31.6 23.8H4.4C3.49826 23.8 2.63346 23.4418 1.99584 22.8042C1.35821 22.1665 1 21.3017 1 20.4V3.4C1 2.49826 1.35821 1.63346 1.99584 0.995837ZM31.6 3.4L4.4 3.4V20.4H31.6V3.4ZM6.1 28.9C6.1 27.9611 6.86112 27.2 7.8 27.2H28.2C29.1389 27.2 29.9 27.9611 29.9 28.9C29.9 29.8389 29.1389 30.6 28.2 30.6H7.8C6.86112 30.6 6.1 29.8389 6.1 28.9Z" fill="#03EBB3"/>
</svg>
