<svg width="567" height="610" viewBox="0 0 567 610" fill="none" xmlns="http://www.w3.org/2000/svg">
<path d="M260.961 175.121C240.781 168.807 221.62 167.045 208.197 169.428C205.689 169.874 203.227 168.307 202.662 165.822C200.499 156.315 200.708 146.313 203.756 136.571C213.709 104.76 250.025 87.8095 284.868 98.7114C319.712 109.613 339.89 144.239 329.937 176.05C327.279 184.547 322.733 191.977 316.84 198.102C313.741 201.322 308.675 201.414 305.347 198.431C295.444 189.552 279.678 180.977 260.961 175.121Z" fill="#03EBB3"/>
<path d="M260.638 176.297C246.601 171.919 231.706 169.05 216.947 169.716C214.115 169.844 211.319 170.155 208.522 170.604C205.201 171.136 202.172 169.173 201.424 165.869C199.671 158.123 199.551 150.026 201.067 142.232C203.346 130.52 209.414 119.71 218.102 111.552C226.392 103.768 236.847 98.4302 247.917 95.9214C259.724 93.2454 272.15 93.7273 283.765 97.1051C295.276 100.453 305.958 106.593 314.481 115.042C322.445 122.936 328.481 132.824 331.507 143.643C334.507 154.365 334.427 165.869 331.074 176.499C328.949 183.234 325.572 189.503 321.166 195.017C319.136 197.557 316.969 200.388 313.746 201.397C310.884 202.294 307.634 201.708 305.244 199.908C304.079 199.03 303.023 198.001 301.889 197.081C300.791 196.19 299.665 195.334 298.518 194.505C295.95 192.65 293.283 190.93 290.552 189.324C284.402 185.705 277.928 182.637 271.285 180.037C267.781 178.665 264.228 177.423 260.638 176.297C259.146 175.828 259.783 173.474 261.286 173.946C274.461 178.081 287.429 183.738 298.766 191.7C301.11 193.346 303.387 195.098 305.546 196.982C306.611 197.912 307.649 198.719 309.036 199.109C310.301 199.464 311.634 199.467 312.899 199.106C314.276 198.713 315.352 197.906 316.323 196.878C317.469 195.666 318.563 194.405 319.598 193.097C321.669 190.481 323.485 187.652 325.038 184.7C330.339 174.624 332.349 162.89 330.711 151.621C329.179 141.086 324.701 131.06 318.096 122.727C311.05 113.839 301.777 106.891 291.374 102.404C280.538 97.7289 268.516 95.8141 256.77 96.9453C245.823 97.9994 235.134 101.819 226.124 108.145C217.343 114.312 210.289 122.97 206.324 132.965C203.655 139.694 202.323 146.9 202.453 154.139C202.521 157.931 202.906 161.814 203.838 165.498C204.149 166.73 204.995 167.725 206.228 168.111C207.475 168.501 208.787 168.085 210.04 167.911C223.349 166.063 237.132 167.819 250.126 170.884C253.882 171.77 257.602 172.797 261.286 173.946C262.779 174.411 262.141 176.766 260.638 176.297Z" fill="#03EBB3"/>
<path d="M320.627 366.001C327.008 369.254 326.775 380.687 334.117 381.949C337.53 382.535 340.819 379.828 342.087 376.605C343.354 373.383 343.089 369.788 342.786 366.338C342.219 359.867 340.862 350.61 339.596 341.944C362.183 326.021 389.731 316.665 419.467 316.665C496.118 316.665 558.256 378.803 558.256 455.454C558.256 532.105 496.118 594.242 419.467 594.242C342.816 594.242 280.679 532.105 280.679 455.454C280.679 420.268 293.779 388.147 315.359 363.684C317.136 364.359 318.894 365.118 320.627 366.001Z" fill="#03EBB3"/>
<path d="M321.242 364.949C324.102 366.477 325.747 369.334 327.124 372.153C328.402 374.769 329.551 378.046 332.024 379.796C335.818 382.482 340.076 379.185 341.232 375.351C342.641 370.684 341.511 365.194 340.939 360.449C340.207 354.375 339.305 348.322 338.42 342.268C338.334 341.682 338.491 341.235 338.98 340.892C352.308 331.528 367.242 324.486 382.976 320.251C398.423 316.094 414.596 314.623 430.542 315.882C443.934 316.939 457.164 319.901 469.701 324.734C481.894 329.435 493.414 335.825 503.831 343.719C514.114 351.512 523.285 360.672 531.091 370.945C538.999 381.35 545.403 392.861 550.12 405.047C554.946 417.515 557.919 430.672 559.008 443.994C560.126 457.676 559.231 471.526 556.36 484.949C553.595 497.874 548.956 510.399 542.666 522.023C536.515 533.39 528.764 543.903 519.745 553.16C510.69 562.454 500.33 570.499 489.076 576.958C477.643 583.521 465.265 588.463 452.45 591.554C439.2 594.749 425.473 595.991 411.865 595.257C398.406 594.53 385.052 591.879 372.36 587.336C360.099 582.947 348.459 576.851 337.888 569.245C327.361 561.672 317.881 552.671 309.82 542.511C301.711 532.291 295.054 520.999 290.053 508.949C284.942 496.638 281.665 483.611 280.25 470.36C278.61 454.995 279.523 439.351 282.945 424.282C286.427 408.949 292.552 394.212 300.939 380.915C304.965 374.533 309.515 368.487 314.497 362.822C314.758 362.525 315.307 362.364 315.683 362.509C317.574 363.236 319.431 364.039 321.242 364.949C322.644 365.653 321.41 367.757 320.011 367.054C318.387 366.238 316.73 365.512 315.034 364.86L316.22 364.546C306.059 376.101 297.794 389.338 292.001 403.6C286.034 418.291 282.641 433.983 282.009 449.826C281.463 463.518 282.921 477.264 286.406 490.518C289.702 503.055 294.783 515.087 301.457 526.199C308.004 537.099 316.057 547.063 325.324 555.768C334.606 564.487 345.088 571.898 356.399 577.749C367.923 583.711 380.291 588 393.025 590.488C406.236 593.07 419.833 593.668 433.227 592.35C446.277 591.066 459.139 587.867 471.289 582.938C483.131 578.134 494.329 571.618 504.372 563.716C514.342 555.869 523.261 546.655 530.726 536.393C538.293 525.99 544.425 514.533 548.809 502.436C553.304 490.033 556.004 476.999 556.788 463.83C557.586 450.426 556.467 436.922 553.39 423.85C550.427 411.264 545.682 399.127 539.319 387.871C533.058 376.795 525.271 366.614 516.228 357.664C507.185 348.715 496.915 341.032 485.77 334.887C474.436 328.637 462.233 324.023 449.603 321.194C435.636 318.064 421.187 317.166 406.933 318.443C390.683 319.898 374.686 324.299 359.985 331.374C353.084 334.695 346.476 338.595 340.21 342.997L340.771 341.62C341.631 347.506 342.501 353.393 343.236 359.296C343.877 364.445 345.003 370.166 343.772 375.289C342.704 379.736 338.712 383.978 333.792 383.124C330.329 382.523 328.167 379.634 326.641 376.705C324.885 373.331 323.584 368.963 320.011 367.054C318.627 366.314 319.857 364.209 321.242 364.949Z" fill="#03EBB3"/>
<path d="M456.017 454.966C463.303 458.17 466.97 467.767 463.676 475.013C463.22 476.017 462.637 476.99 461.792 477.7C460.684 478.63 459.237 479.022 457.879 479.52C453.173 481.245 449.061 484.55 446.365 488.775C440.503 482.501 435.824 475.125 432.646 467.148C432.256 466.169 431.883 465.161 431.83 464.108C431.724 462.006 432.886 460.073 434.005 458.29C435.906 455.263 438.054 452.033 441.426 450.848C444.798 449.663 449.472 451.99 449.089 455.544" fill="black"/>
<path d="M456.632 453.914C462.011 456.329 465.436 461.88 466.03 467.637C466.336 470.595 465.801 473.687 464.391 476.316C463.481 478.013 462.139 479.165 460.371 479.898C458.794 480.553 457.181 481.032 455.664 481.837C452.323 483.61 449.471 486.212 447.418 489.39C447.008 490.025 446.061 490.235 445.504 489.637C439.557 483.248 434.828 475.812 431.568 467.716C430.705 465.573 430.268 463.483 431.088 461.243C431.791 459.324 432.968 457.578 434.105 455.892C436.153 452.853 438.962 449.617 442.879 449.333C446.389 449.079 450.637 451.628 450.308 455.544C450.178 457.096 447.739 457.11 447.87 455.544C448.088 452.948 445.117 451.58 442.879 451.771C439.77 452.037 437.512 455.14 435.947 457.517C434.947 459.035 433.795 460.627 433.274 462.386C432.718 464.263 433.453 465.952 434.168 467.676C435.619 471.178 437.394 474.555 439.412 477.763C441.692 481.388 444.31 484.779 447.228 487.913L445.313 488.16C447.074 485.432 449.334 483.089 451.994 481.226C453.342 480.282 454.786 479.491 456.3 478.847C457.787 478.214 459.546 477.883 460.851 476.896C462.977 475.288 463.659 471.836 463.674 469.324C463.69 466.708 462.987 464.105 461.698 461.831C460.246 459.271 458.093 457.227 455.402 456.019C454.801 455.75 454.657 454.876 454.964 454.351C455.326 453.733 456.029 453.643 456.632 453.914Z" fill="black"/>
<path d="M344.955 467.775C350.817 463.181 357.29 458.366 364.738 458.364C367.902 458.364 371.027 459.255 374.188 459.133C382.672 458.806 389.632 451.381 398.116 451.027C399.287 450.978 400.534 451.092 401.484 451.78C402.371 452.423 402.867 453.472 403.22 454.511C405.506 461.243 403.101 468.789 399.082 474.654C397.186 477.423 394.784 480.053 391.604 481.125C384.104 483.654 374.18 477.141 368.703 482.855C367.526 484.083 366.823 485.712 365.6 486.893C363.142 489.266 359.311 489.26 355.898 489.105C352.391 488.947 348.853 488.783 345.461 487.88C341.475 486.818 337.516 484.447 336.025 480.601C334.534 476.755 336.694 471.5 340.784 470.967" fill="black"/>
<path d="M344.092 466.914C349 463.07 354.231 459.023 360.446 457.637C361.943 457.303 363.49 457.124 365.025 457.148C366.803 457.176 368.561 457.469 370.321 457.685C371.981 457.889 373.657 458.021 375.325 457.828C376.639 457.676 377.936 457.321 379.184 456.893C384.565 455.048 389.262 451.49 394.869 450.244C397.653 449.625 401.267 449.245 403.207 451.806C404.967 454.13 405.385 457.646 405.32 460.475C405.177 466.654 402.379 472.728 398.5 477.451C396.628 479.731 394.236 481.689 391.346 482.478C388.84 483.163 386.203 482.999 383.657 482.662C381.078 482.32 378.51 481.754 375.903 481.66C373.739 481.583 371.489 481.891 369.85 483.435C368.774 484.448 368.099 485.794 367.186 486.942C366.259 488.108 365.074 488.945 363.698 489.502C360.973 490.605 357.895 490.42 355.021 490.284C348.881 489.995 341.902 489.426 337.334 484.771C335.471 482.872 334.225 480.344 334.341 477.643C334.442 475.256 335.435 472.779 337.312 471.238C338.223 470.49 339.289 469.966 340.46 469.792C341.111 469.695 341.77 469.954 341.96 470.643C342.118 471.218 341.763 472.045 341.108 472.142C339.105 472.44 337.712 473.94 337.114 475.828C336.432 477.98 336.84 480.099 338.12 481.939C341.394 486.64 348.037 487.446 353.265 487.755C356.012 487.917 358.966 488.248 361.672 487.593C362.849 487.308 363.958 486.811 364.824 485.946C365.797 484.971 366.435 483.712 367.288 482.637C370.486 478.607 375.679 479.005 380.246 479.699C384.958 480.415 390.094 481.546 394.175 478.341C396.35 476.633 398.004 474.277 399.376 471.904C400.804 469.433 401.894 466.77 402.476 463.972C403.045 461.236 403.06 458.371 402.303 455.67C401.985 454.537 401.565 453.098 400.409 452.553C399.318 452.04 397.896 452.202 396.74 452.367C391.515 453.11 387.021 456.257 382.258 458.294C379.821 459.337 377.305 460.145 374.645 460.327C371.364 460.552 368.153 459.611 364.882 459.585C359.039 459.538 353.815 462.689 349.247 466.024C348.086 466.872 346.948 467.751 345.816 468.637C345.299 469.043 344.598 469.143 344.093 468.637C343.671 468.216 343.571 467.322 344.092 466.914Z" fill="black"/>
<path d="M296.333 461.498L298.296 462.794C301.968 463.127 305.732 463.485 309.048 465.097C312.364 466.708 315.186 469.867 315.308 473.552C315.345 474.661 315.146 475.812 315.528 476.853C316.082 478.364 317.661 479.186 318.848 480.272C323.252 484.307 320.676 493.104 314.792 494.126C312.463 494.531 310.099 493.899 307.763 493.534C302.648 492.736 297.413 493.222 292.268 492.656C289.889 492.394 287.468 491.83 285.253 490.897C282.571 480.717 281.012 470.082 280.727 459.128C285.433 457.089 291.417 459.246 296.333 461.498Z" fill="black"/>
<path d="M296.948 460.445L298.912 461.742L298.296 461.575C302.336 461.943 306.535 462.335 310.166 464.303C313.183 465.938 315.852 468.855 316.401 472.336C316.668 474.028 316.028 476.07 317.333 477.412C318.452 478.562 319.84 479.327 320.787 480.657C322.331 482.825 322.587 485.714 321.963 488.246C321.34 490.775 319.747 493.193 317.434 494.465C313.933 496.391 309.999 494.975 306.312 494.56C301.938 494.067 297.523 494.347 293.142 493.961C290.98 493.77 288.828 493.41 286.757 492.747C285.869 492.462 284.414 492.189 284.077 491.221C283.74 490.254 283.558 489.203 283.32 488.208C281.038 478.683 279.773 468.918 279.508 459.128C279.492 458.539 279.909 458.159 280.403 457.953C285.805 455.697 291.985 458.182 296.948 460.445C297.547 460.718 297.694 461.586 297.386 462.113C297.026 462.728 296.319 462.824 295.718 462.55C291.308 460.539 285.843 458.303 281.051 460.304L281.946 459.128C282.233 469.749 283.732 480.295 286.428 490.573L285.577 489.721C291.695 492.252 298.265 491.497 304.71 491.974C306.365 492.097 307.999 492.334 309.632 492.625C311.174 492.899 312.781 493.195 314.35 492.968C316.074 492.719 317.534 491.668 318.477 490.223C319.466 488.707 319.945 486.906 319.827 485.098C319.705 483.251 318.814 481.778 317.395 480.632C316.407 479.834 315.339 479.092 314.703 477.957C313.921 476.563 314.145 475.076 314.089 473.552C313.998 471.096 312.452 468.923 310.566 467.457C308.008 465.467 304.679 464.733 301.53 464.343C300.723 464.243 299.913 464.163 299.103 464.087C298.53 464.034 297.997 464.027 297.498 463.726C296.891 463.36 296.31 462.941 295.718 462.55C294.414 461.689 295.634 459.577 296.948 460.445Z" fill="black"/>
<path d="M558.256 455.454C558.256 485.542 548.678 513.39 532.411 536.125C525.113 531.28 519.538 524.942 518.479 516.372C517.516 508.582 520.776 500.975 522.268 493.269C523.759 485.563 522.709 476.137 515.966 472.12C509.806 468.449 499.278 468.944 498.403 461.827C498.073 459.139 499.595 456.546 499.64 453.838C499.744 447.656 492.455 443.435 492.009 437.268C491.492 430.116 500.056 425.677 502.212 418.838C504.893 410.337 497.08 402.417 494.612 393.852C490.193 378.515 503.126 364.723 509.216 349.598C539.213 375.056 558.256 413.028 558.256 455.454Z" fill="black"/>
<path d="M559.475 455.454C559.461 467 558.061 478.547 555.243 489.746C552.517 500.577 548.466 511.08 543.238 520.948C540.336 526.424 537.063 531.697 533.463 536.74C533.098 537.251 532.383 537.57 531.795 537.178C525.775 533.156 520.404 527.814 518.182 520.755C515.443 512.053 518.723 503.461 520.66 494.983C522.077 488.781 522.568 480.888 518.222 475.65C514.319 470.945 507.549 470.895 502.353 468.417C500.006 467.298 497.953 465.473 497.35 462.85C496.467 459.007 499.24 455.42 498.098 451.622C497.194 448.616 494.879 446.2 493.201 443.615C491.405 440.85 490.281 437.748 491.023 434.434C492.446 428.072 499.109 424.619 501.037 418.514C502.125 415.069 501.252 411.527 499.881 408.297C498.347 404.684 496.275 401.328 494.733 397.718C493.255 394.26 492.409 390.627 492.497 386.851C492.586 383.094 493.506 379.398 494.832 375.896C497.647 368.458 502.021 361.752 505.572 354.666C506.458 352.898 507.297 351.107 508.041 349.274C508.396 348.397 509.33 348.1 510.078 348.736C521.893 358.784 532.039 370.779 539.956 384.118C547.989 397.65 553.717 412.557 556.778 427.994C558.57 437.032 559.465 446.241 559.475 455.454C559.476 457.023 557.038 457.025 557.037 455.454C557.019 439.515 554.286 423.652 548.873 408.656C543.667 394.233 535.984 380.674 526.304 368.783C520.897 362.141 514.878 356.008 508.354 350.46L510.392 349.922C507.391 357.319 503.056 364.039 499.545 371.186C496.332 377.725 493.771 385.057 495.491 392.395C497.205 399.711 502.791 405.635 503.826 413.155C504.305 416.633 503.481 419.959 501.594 422.902C499.858 425.609 497.545 427.87 495.667 430.47C493.944 432.856 492.663 435.594 493.465 438.581C494.284 441.633 496.576 444.084 498.289 446.659C500.221 449.562 501.305 452.595 500.574 456.095C500.171 458.021 499.287 460.008 499.66 462.007C499.869 463.133 500.431 464.08 501.271 464.849C503.178 466.594 505.981 467.281 508.392 467.991C511.173 468.81 514.072 469.566 516.581 471.067C522.438 474.571 524.276 481.767 524.063 488.185C523.781 496.645 519.685 504.477 519.527 512.946C519.387 520.518 523.126 526.991 528.74 531.844C530.096 533.016 531.536 534.077 533.026 535.072L531.358 535.51C537.688 526.643 543.015 517.045 547.086 506.935C551.228 496.645 554.12 485.859 555.685 474.877C556.602 468.447 557.029 461.948 557.037 455.454C557.038 453.885 559.476 453.883 559.475 455.454Z" fill="black"/>
<path d="M298.575 511.239C302.787 509.613 307.435 509.672 311.95 509.774C315.025 509.844 318.248 509.965 320.908 511.509C321.368 509.928 321.003 508.131 319.963 506.854L324.137 508.998C329.106 506.541 336.486 506.645 338.744 511.707C341.157 517.115 335.685 522.7 330.475 525.516C324.758 528.607 318.577 530.836 312.203 532.104C309.599 532.622 306.902 532.956 304.255 532.861C300.302 526.988 296.791 520.793 293.759 514.328C295.134 512.997 296.801 511.923 298.575 511.239Z" fill="black"/>
<path d="M298.251 510.063C302.085 508.618 306.234 508.464 310.287 508.523C314.087 508.578 318.114 508.539 321.524 510.457L319.733 511.185C320.043 510.013 319.858 508.693 319.101 507.717C318.281 506.658 319.271 505.131 320.579 505.802C321.97 506.516 323.361 507.231 324.753 507.945H323.522C327.47 506.026 332.784 505.307 336.712 507.682C338.682 508.872 340.091 510.89 340.44 513.176C340.851 515.858 339.846 518.451 338.245 520.574C334.589 525.422 328.734 528.059 323.214 530.183C320.182 531.35 317.062 532.29 313.89 532.993C312.306 533.344 310.71 533.632 309.1 533.834C308.295 533.935 307.486 534.011 306.676 534.055C305.851 534.099 304.91 534.21 304.093 534.059C303.191 533.892 302.727 532.77 302.263 532.061C301.745 531.271 301.235 530.475 300.733 529.674C299.754 528.111 298.806 526.527 297.89 524.926C296.028 521.67 294.303 518.338 292.706 514.944C292.478 514.458 292.482 513.861 292.897 513.467C294.459 511.981 296.25 510.857 298.251 510.063C298.863 509.82 299.589 510.329 299.75 510.915C299.941 511.608 299.513 512.17 298.899 512.414C297.304 513.047 295.861 514.012 294.621 515.19L294.811 513.713C297.838 520.147 301.343 526.344 305.308 532.246L304.255 531.642C309.751 531.808 315.314 530.383 320.473 528.596C323.007 527.719 325.48 526.682 327.882 525.49C330.08 524.397 332.207 523.195 334.044 521.549C336.856 519.029 339.822 514.64 336.938 511.047C334.724 508.289 330.449 508.297 327.331 509.11C326.832 509.241 326.338 509.395 325.854 509.575C325.389 509.747 324.936 510.043 324.461 510.173C323.847 510.342 323.213 509.891 322.686 509.621C321.573 509.05 320.461 508.478 319.348 507.907L320.825 505.992C322.135 507.683 322.637 509.742 322.084 511.833C321.88 512.605 320.971 512.943 320.293 512.562C317.216 510.83 313.429 510.999 310.009 510.957C306.242 510.91 302.46 511.072 298.899 512.414C298.283 512.646 297.562 512.156 297.399 511.563C297.211 510.878 297.632 510.296 298.251 510.063Z" fill="black"/>
<path d="M467.097 572.069C467.949 571.041 468.67 569.76 468.491 568.437C468.315 567.141 467.331 566.124 466.398 565.208C463.898 562.749 461.397 560.291 458.897 557.833C458.39 557.335 457.865 556.807 457.654 556.129C457.241 554.8 458.154 553.443 459.105 552.428C462.459 548.843 466.985 546.374 471.815 545.493C473.041 545.27 474.374 545.162 475.47 545.755C477.999 547.123 477.555 550.93 479.127 553.337C481.951 557.663 489.521 555.593 492.915 559.487C495.309 562.233 494.382 566.408 493.608 569.968C493.395 570.948 493.246 572.001 493.192 573.052C481.728 580.254 469.138 585.825 455.744 589.442C455.235 588.461 454.913 587.397 454.909 586.264C454.887 579.817 462.984 577.033 467.097 572.069Z" fill="black"/>
<path d="M466.235 571.207C466.817 570.485 467.442 569.508 467.276 568.535C467.123 567.641 466.394 566.928 465.784 566.315C464.005 564.53 462.19 562.779 460.392 561.013C459.495 560.13 458.567 559.268 457.698 558.357C456.948 557.57 456.374 556.657 456.337 555.542C456.265 553.346 458.138 551.545 459.645 550.192C462.779 547.378 466.646 545.354 470.768 544.462C472.848 544.011 475.133 543.778 476.87 545.255C478.177 546.368 478.647 548.102 479.064 549.698C479.443 551.145 479.806 552.668 481.03 553.647C482.152 554.544 483.647 554.887 485.021 555.178C488.048 555.819 491.607 556.129 493.777 558.625C496.565 561.832 495.645 566.295 494.831 570.069C494.709 570.638 494.594 571.209 494.521 571.787C494.447 572.365 494.544 573.155 494.244 573.667C493.972 574.133 493.333 574.402 492.888 574.677C492.388 574.985 491.887 575.291 491.383 575.593C489.405 576.779 487.398 577.917 485.363 579.004C477.139 583.395 468.466 586.968 459.532 589.633C458.381 589.976 457.226 590.303 456.068 590.618C455.576 590.751 454.931 590.536 454.691 590.057C453.659 587.995 453.368 585.677 454.152 583.477C454.786 581.696 455.951 580.191 457.305 578.893C460.143 576.171 463.686 574.242 466.235 571.207C467.245 570.004 468.962 571.736 467.958 572.931C465.617 575.719 462.435 577.587 459.728 579.975C457.14 582.259 455.054 585.344 456.796 588.827L455.42 588.267C465.647 585.493 475.532 581.558 484.85 576.512C487.474 575.092 490.049 573.584 492.577 571.999L491.973 573.052C492.141 570.212 493.131 567.495 493.225 564.652C493.301 562.32 492.584 560.22 490.427 559.099C486.772 557.2 481.913 558.146 478.863 554.953C477.19 553.202 476.99 550.826 476.221 548.645C475.909 547.761 475.405 546.94 474.463 546.654C473.205 546.271 471.689 546.72 470.462 547.041C467.785 547.742 465.275 548.95 463.032 550.568C461.925 551.366 460.892 552.288 459.966 553.289C459.122 554.203 458.286 555.348 459.258 556.458C460.463 557.834 461.884 559.061 463.188 560.342C464.545 561.677 465.906 563.008 467.26 564.346C468.371 565.444 469.472 566.666 469.687 568.275C469.925 570.046 469.032 571.602 467.958 572.931C467.545 573.444 466.665 573.362 466.235 572.931C465.728 572.424 465.82 571.721 466.235 571.207Z" fill="black"/>
<path d="M256.793 137.866C259.646 134.284 263.616 131.465 268.264 130.992C272.699 130.542 277.303 132.46 280.336 135.676C283.504 139.035 285.054 143.767 284.849 148.348C284.62 153.46 282.211 158.046 279.98 162.532C277.274 167.974 275.172 173.652 273.653 179.537C273.502 180.124 272.761 180.63 272.154 180.388C266.134 177.996 259.984 175.977 253.724 174.312C253.047 174.132 252.756 173.457 252.873 172.813C253.146 171.309 253.419 169.805 253.692 168.301C253.814 167.631 253.947 167.863 253.355 167.631C252.843 167.43 252.349 167.194 251.894 166.884C250.049 165.627 248.823 163.648 248.254 161.509C246.833 156.164 249.715 150.81 251.928 146.112C253.297 143.207 254.814 140.406 256.793 137.866C257.198 137.346 258.091 137.441 258.516 137.866C259.03 138.379 258.923 139.069 258.516 139.59C256.847 141.733 255.56 144.16 254.386 146.601C253.217 149.032 251.998 151.495 251.15 154.06C250.39 156.36 249.982 158.804 250.692 161.167C251.231 162.961 252.4 164.655 254.198 165.353C254.841 165.603 255.495 165.823 255.881 166.444C256.287 167.097 256.244 167.783 256.122 168.513C255.847 170.166 255.523 171.812 255.224 173.461L254.372 171.962C260.632 173.626 266.782 175.645 272.802 178.038L271.303 178.889C272.557 174.029 274.199 169.279 276.256 164.7C278.207 160.357 280.81 156.224 281.938 151.556C282.928 147.458 282.405 143.033 280.162 139.424C278.062 136.046 274.341 133.668 270.344 133.397C265.507 133.07 261.412 135.954 258.516 139.59C258.106 140.105 257.221 140.018 256.793 139.59C256.283 139.081 256.381 138.383 256.793 137.866Z" fill="black"/>
<path d="M268.345 251.975C257.419 243.553 246.261 235.295 234.539 228.007C223.627 221.223 211.956 215.357 199.355 212.503C187.6 209.841 175.454 210.248 163.826 213.346C152.208 216.441 141.353 221.974 131.521 228.838C126.52 232.33 121.78 236.187 117.298 240.323C112.569 244.686 108.251 249.422 103.919 254.171C101.672 256.635 99.3994 259.08 97.0025 261.401C94.9388 263.399 92.626 265.48 89.5626 265.392C87.1611 265.323 85.0079 264.093 82.9765 262.932C81.0767 261.847 78.867 260.408 76.568 260.776C74.1137 261.169 72.6343 263.681 72.3476 265.973C71.9786 268.923 73.5467 271.76 75.2403 274.049C79.0056 279.137 83.9916 283.487 88.9522 287.37C94.0456 291.357 99.4829 294.89 104.971 298.303C107.61 299.944 110.232 301.671 112.968 303.147C115.81 304.681 118.923 305.6 121.809 303.678C124.062 302.178 125.675 299.898 127.975 298.442C130.636 296.76 133.815 296.33 136.843 295.746C142.511 294.653 148.102 293.128 153.512 291.113C164.193 287.135 174.298 281.107 181.983 272.598C183.82 270.564 185.492 268.398 187.004 266.112C187.413 265.492 188.366 265.25 188.918 265.865C200.834 279.133 216.067 290.195 233.742 294.031C249.555 297.463 267.482 294.18 279.872 283.378C287.447 276.774 293.231 267.047 292.29 256.707C292.148 255.145 294.586 255.155 294.728 256.707C295.614 266.435 290.808 275.849 284.163 282.673C278.303 288.692 270.761 292.92 262.746 295.327C254.589 297.776 245.905 298.364 237.481 297.172C228.261 295.867 219.389 292.422 211.382 287.722C202.295 282.389 194.221 275.413 187.194 267.589L189.109 267.342C182.616 277.16 173.218 284.621 162.717 289.789C157.336 292.438 151.683 294.533 145.904 296.13C143.072 296.913 140.208 297.577 137.323 298.129C134.181 298.73 130.858 299.152 128.277 301.21C126.148 302.907 124.45 305.205 121.951 306.409C118.925 307.867 115.724 307.194 112.81 305.801C109.828 304.375 107.041 302.455 104.235 300.715C101.382 298.946 98.5484 297.147 95.7643 295.272C90.3057 291.597 85.0126 287.626 80.2367 283.088C77.8689 280.838 75.5777 278.459 73.5823 275.869C71.7157 273.446 70.1822 270.701 69.8976 267.604C69.4147 262.35 73.6382 257.247 79.1317 258.515C83.727 259.576 88.1611 265.222 92.9411 261.76C95.7063 259.758 98.0491 256.936 100.361 254.444C102.82 251.793 105.217 249.085 107.686 246.444C111.963 241.871 116.513 237.553 121.336 233.559C130.896 225.644 141.502 218.947 153.057 214.354C164.414 209.84 176.734 207.529 188.961 208.473C202.113 209.489 214.628 214.147 226.181 220.337C238.361 226.862 249.665 234.981 260.747 243.194C263.711 245.391 266.653 247.617 269.575 249.87C270.8 250.814 269.588 252.933 268.345 251.975Z" fill="black"/>
<path d="M74.9938 258.673C78.333 257.615 81.3132 259.179 84.1607 260.801C85.5261 261.579 86.9128 262.432 88.4582 262.795C90.7531 263.334 92.5557 262.196 94.2148 260.687C100.981 254.535 106.562 247.249 113.134 240.901C125.554 228.907 140.2 218.804 156.564 213.047C165.697 209.834 175.337 208.115 185.028 208.288L184.704 210.682C173.445 208.198 162.304 205.188 151.343 201.607C146.038 199.875 140.818 197.69 135.394 196.358C132.538 195.656 129.582 195.277 126.65 195.669C123.888 196.039 121.265 197.058 118.529 197.561C114.279 198.342 109.179 197.664 106.905 193.508C106.702 193.136 106.667 192.647 106.905 192.278C107.971 190.627 109.522 189.565 111.113 188.467C112.548 187.477 114.56 186.12 114.09 184.075C113.62 182.028 111.026 181.031 109.207 180.649C106.722 180.128 104.147 180.816 101.661 180.365C98.4128 179.775 96.7014 175.967 98.5329 173.168C99.6346 171.484 101.924 170.606 103.768 170.037C106.144 169.303 108.597 169.214 111.04 169.605L110.392 171.956C107.061 170.794 95.8004 167.211 100.761 161.881C102.587 159.919 106.021 159.635 108.542 159.648C111.708 159.665 114.772 160.519 117.542 162.033C118.924 162.788 117.701 164.856 116.311 164.138C114.465 163.183 112.619 162.228 110.772 161.273C109.175 160.447 107.455 159.722 106.003 158.65C103.958 157.14 103.04 154.527 104.764 152.358C106.718 149.898 110.313 150.395 113.057 150.8C116.708 151.339 120.174 152.659 123.307 154.599L121.83 156.514C119.152 153.163 113.328 152.648 112.526 147.749C112.189 145.691 113.227 143.499 115.278 142.811C117.544 142.052 120.191 143.14 122.348 143.791C134.415 147.433 145.702 153.194 157.599 157.316C169.737 161.523 182.287 164.435 194.932 166.64C198.186 167.208 201.448 167.729 204.716 168.215C207.078 168.566 209.254 167.992 211.61 167.712C216.612 167.117 221.675 167.077 226.699 167.364C239.086 168.072 251.373 170.703 263.152 174.542C274.08 178.104 284.765 182.758 294.513 188.88C298.469 191.365 302.285 194.109 305.791 197.201C306.713 198.014 307.41 198.668 308.574 199.123C310.111 199.723 311.649 200.319 313.189 200.909C316.269 202.09 319.357 203.25 322.456 204.379C334.499 208.766 346.733 212.693 359.245 215.514C365.556 216.937 371.931 218.075 378.355 218.845C384.879 219.628 391.435 220.109 397.959 220.886C401.046 221.253 404.128 221.679 407.188 222.23C409.641 222.672 412.61 222.914 414.8 224.211C416.648 225.305 417.455 227.456 416.703 229.484C415.877 231.711 413.57 232.831 411.358 233.167C408.769 233.56 406.102 233.043 403.631 234.083L403.307 231.689C406.894 231.46 410.515 231.904 413.91 233.102C416.606 234.053 420.299 235.38 420.704 238.659C421.036 241.346 419.035 243.083 416.555 243.425C412.781 243.944 408.689 243.452 404.887 243.4C403.319 243.378 403.316 240.977 404.887 240.962C407.846 240.933 410.733 241.559 413.399 242.848C415.652 243.937 418.697 245.815 419.573 248.307C422.189 255.74 409.938 253.62 406.412 253.07L407.06 250.72C411.264 252.163 414.763 255.267 416.492 259.393C417.211 261.109 417.305 262.965 415.887 264.373C414.344 265.905 412.35 265.513 410.527 264.773C406.999 263.34 402.414 259.252 398.333 261.389C396.161 262.526 396.889 264.97 397.755 266.73C398.718 268.688 399.769 270.477 399.963 272.697C400.001 273.127 399.7 273.529 399.36 273.749C394.43 276.93 388.964 273.54 385.261 270.119C382.889 267.928 380.63 265.804 377.66 264.436C374.928 263.177 371.936 262.51 368.989 261.981C362.483 260.813 355.94 259.913 349.452 258.63C342.708 257.295 336.004 255.759 329.352 254.025C321.733 252.039 314.186 249.787 306.717 247.297L308.216 246.446C305.946 254.31 301.315 260.917 293.609 264.148L294.461 263.297C291.58 280.493 275.677 292.364 259.554 296.182C242.728 300.167 225.422 296.125 210.769 287.359C201.927 282.07 194.072 275.234 187.194 267.589L189.108 267.342C177.673 284.567 157.922 294.034 138.141 297.969C135.403 298.514 132.491 298.816 129.977 300.108C127.664 301.297 126.058 303.433 124.053 305.032C119.665 308.533 114.885 307.141 110.432 304.508C100.739 298.777 91.0219 292.697 82.5639 285.22C78.2149 281.375 73.1772 276.844 70.8724 271.39C68.8766 266.667 69.8473 260.751 74.9938 258.673C76.4482 258.086 77.0804 260.444 75.6417 261.024C70.3529 263.159 72.4029 269.978 74.8227 273.464C77.755 277.689 81.7433 281.352 85.6418 284.67C93.4912 291.35 102.347 296.79 111.154 302.098C113.44 303.477 116.078 305.067 118.855 304.793C121.241 304.559 122.948 302.833 124.597 301.258C126.184 299.74 127.787 298.353 129.834 297.497C132.195 296.509 134.734 296.161 137.228 295.671C146.358 293.878 155.328 290.974 163.57 286.622C172.87 281.711 181.157 274.918 187.003 266.112C187.414 265.493 188.364 265.25 188.918 265.865C202.175 280.601 219.947 293.065 240.165 295.06C258.278 296.847 278.584 289.842 288.135 273.519C289.696 270.851 290.912 267.985 291.643 264.978C291.878 264.011 291.805 262.554 292.67 261.92C293.856 261.052 295.475 260.623 296.723 259.768C301.492 256.503 304.297 251.231 305.865 245.798C306.041 245.19 306.732 244.735 307.365 244.946C319.99 249.155 332.841 252.666 345.863 255.413C352.342 256.78 358.859 257.947 365.404 258.948C370.873 259.784 376.591 260.641 381.352 263.664C385.929 266.571 391.84 275.701 398.129 271.644L397.525 272.697C397.203 269.016 393.436 266.161 394.656 262.232C395.659 259.001 399.236 258.179 402.223 258.58C403.983 258.817 405.561 259.448 407.111 260.292C408.612 261.11 412.192 263.82 413.893 262.816C415.922 261.619 413.061 257.987 412.082 256.874C410.544 255.124 408.614 253.826 406.412 253.07C404.902 252.552 405.529 250.481 407.06 250.72C409.528 251.104 412.016 251.293 414.515 251.268C415.444 251.258 416.602 251.436 417.156 250.59C417.931 249.405 416.794 248.254 415.964 247.493C412.957 244.733 408.935 243.36 404.887 243.4V240.962C407.889 241.003 410.891 241.048 413.893 241.085C415.545 241.105 419.299 241.184 418.109 238.389C417.221 236.303 413.265 235.36 411.266 234.839C408.653 234.157 405.997 233.955 403.307 234.126C401.809 234.222 401.828 232.219 402.983 231.732C405.224 230.788 407.584 231.032 409.953 230.877C411.277 230.79 412.834 230.535 413.817 229.545C414.997 228.355 414.629 226.795 413.197 226.119C410.744 224.963 407.548 224.736 404.898 224.297C401.825 223.788 398.734 223.398 395.638 223.059C383.744 221.759 371.914 220.767 360.197 218.219C348.527 215.682 337.093 212.159 325.841 208.178C320.244 206.198 314.689 204.103 309.156 201.952C308.084 201.536 306.791 201.231 305.852 200.559C305.037 199.975 304.322 199.14 303.558 198.48C301.837 196.993 300.041 195.596 298.191 194.272C289.826 188.285 280.506 183.621 270.936 179.901C259.911 175.616 248.378 172.47 236.662 170.801C226.987 169.422 217.08 169.065 207.433 170.813C206.305 171.018 205.197 170.734 204.068 170.566C202.542 170.339 201.018 170.104 199.495 169.861C196.453 169.375 193.416 168.853 190.388 168.288C184.561 167.2 178.763 165.95 173.021 164.477C161.474 161.514 150.461 157.351 139.47 152.783C134.124 150.562 128.754 148.374 123.234 146.618C121.506 146.068 116.544 143.725 115.196 145.798C113.641 148.189 117.138 150.378 118.812 151.322C120.542 152.299 122.291 153.21 123.553 154.79C124.357 155.796 123.347 157.492 122.076 156.704C119.878 155.343 117.54 154.306 115.03 153.67C113.694 153.332 112.336 153.103 110.961 153.006C109.87 152.93 108.29 152.693 107.312 153.315C104.479 155.116 107.992 157.09 109.541 157.895C112.205 159.28 114.875 160.653 117.542 162.033L116.311 164.138C112.658 162.142 108.146 161.423 104.119 162.694C103.147 163.001 101.564 163.881 102.174 165.193C102.496 165.884 103.787 166.366 104.405 166.7C106.537 167.852 108.753 168.807 111.04 169.605C112.544 170.13 111.927 172.202 110.392 171.956C108.101 171.589 97.8326 172.556 100.564 176.97C101.671 178.76 104.967 178.007 106.723 178.006C108.598 178.005 110.412 178.288 112.14 179.043C115.043 180.311 117.468 183.093 116.264 186.42C115.021 189.858 110.882 190.609 109.01 193.508V192.278C112.278 198.251 120.68 194.195 125.532 193.382C132.18 192.267 138.571 194.627 144.746 196.799C158.031 201.472 171.601 205.297 185.352 208.332C186.7 208.629 186.394 210.75 185.028 210.726C167.476 210.413 150.592 216.566 135.921 225.905C128.502 230.629 121.612 236.15 115.265 242.233C108.661 248.563 103.023 255.787 96.3395 262.036C93.2546 264.92 90.0144 266.25 85.9727 264.497C82.7437 263.097 79.3984 259.834 75.6417 261.024C74.1426 261.499 73.5013 259.146 74.9938 258.673Z" fill="black"/>
<path d="M74.9938 258.673C78.333 257.615 81.3132 259.179 84.1607 260.801C85.5261 261.579 86.9128 262.432 88.4582 262.795C90.7531 263.334 92.5557 262.196 94.2148 260.687C100.981 254.535 106.562 247.249 113.134 240.901C125.554 228.907 140.2 218.804 156.564 213.047C165.697 209.834 175.337 208.115 185.028 208.288L184.704 210.682C173.445 208.198 162.304 205.188 151.343 201.607C146.038 199.875 140.818 197.69 135.394 196.358C132.538 195.656 129.582 195.277 126.65 195.669C123.888 196.039 121.265 197.058 118.529 197.561C114.279 198.342 109.179 197.664 106.905 193.508C106.702 193.136 106.667 192.647 106.905 192.278C107.971 190.627 109.522 189.565 111.113 188.467C112.548 187.477 114.56 186.12 114.09 184.075C113.62 182.028 111.026 181.031 109.207 180.649C106.722 180.128 104.147 180.816 101.661 180.365C98.4128 179.775 96.7014 175.967 98.5329 173.168C99.6346 171.484 101.924 170.606 103.768 170.037C106.144 169.303 108.597 169.214 111.04 169.605L110.392 171.956C107.061 170.794 95.8004 167.211 100.761 161.881C102.587 159.919 106.021 159.635 108.542 159.648C111.708 159.665 114.772 160.519 117.542 162.033C118.924 162.788 117.701 164.856 116.311 164.138C114.465 163.183 112.619 162.228 110.772 161.273C109.175 160.447 107.455 159.722 106.003 158.65C103.958 157.14 103.04 154.527 104.764 152.358C106.718 149.898 110.313 150.395 113.057 150.8C116.708 151.339 120.174 152.659 123.307 154.599L121.83 156.514C119.152 153.163 113.328 152.648 112.526 147.749C112.189 145.691 113.227 143.499 115.278 142.811C117.544 142.052 120.191 143.14 122.348 143.791C134.415 147.433 145.702 153.194 157.599 157.316C169.737 161.523 182.287 164.435 194.932 166.64C198.186 167.208 201.448 167.729 204.716 168.215C207.078 168.566 209.254 167.992 211.61 167.712C216.612 167.117 221.675 167.077 226.699 167.364C239.086 168.072 251.373 170.703 263.152 174.542C274.08 178.104 284.765 182.758 294.513 188.88C298.469 191.365 302.285 194.109 305.791 197.201C306.713 198.014 307.41 198.668 308.574 199.123C310.111 199.723 311.649 200.319 313.189 200.909C316.269 202.09 319.357 203.25 322.456 204.379C334.499 208.766 346.733 212.693 359.245 215.514C365.556 216.937 371.931 218.075 378.355 218.845C384.879 219.628 391.435 220.109 397.959 220.886C401.046 221.253 404.128 221.679 407.188 222.23C409.641 222.672 412.61 222.914 414.8 224.211C416.648 225.305 417.455 227.456 416.703 229.484C415.877 231.711 413.57 232.831 411.358 233.167C408.769 233.56 406.102 233.043 403.631 234.083L403.307 231.689C406.894 231.46 410.515 231.904 413.91 233.102C416.606 234.053 420.299 235.38 420.704 238.659C421.036 241.346 419.035 243.083 416.555 243.425C412.781 243.944 408.689 243.452 404.887 243.4C403.319 243.378 403.316 240.977 404.887 240.962C407.846 240.933 410.733 241.559 413.399 242.848C415.652 243.937 418.697 245.815 419.573 248.307C422.189 255.74 409.938 253.62 406.412 253.07L407.06 250.72C411.264 252.163 414.763 255.267 416.492 259.393C417.211 261.109 417.305 262.965 415.887 264.373C414.344 265.905 412.35 265.513 410.527 264.773C406.999 263.34 402.414 259.252 398.333 261.389C396.161 262.526 396.889 264.97 397.755 266.73C398.718 268.688 399.769 270.477 399.963 272.697C400.001 273.127 399.7 273.529 399.36 273.749C394.43 276.93 388.964 273.54 385.261 270.119C382.889 267.928 380.63 265.804 377.66 264.436C374.928 263.177 371.936 262.51 368.989 261.981C362.483 260.813 355.94 259.913 349.452 258.63C342.708 257.295 336.004 255.759 329.352 254.025C321.733 252.039 314.186 249.787 306.717 247.297L308.216 246.446C305.946 254.31 301.315 260.917 293.609 264.148L294.461 263.297C291.58 280.493 275.677 292.364 259.554 296.182C242.728 300.167 225.422 296.125 210.769 287.359C201.927 282.07 194.072 275.234 187.194 267.589L189.108 267.342C177.673 284.567 157.922 294.034 138.141 297.969C135.403 298.514 132.491 298.816 129.977 300.108C127.664 301.297 126.058 303.433 124.053 305.032C119.665 308.533 114.885 307.141 110.432 304.508C100.739 298.777 91.0219 292.697 82.5639 285.22C78.2149 281.375 73.1772 276.844 70.8724 271.39C68.8766 266.667 69.8473 260.751 74.9938 258.673C76.4482 258.086 77.0804 260.444 75.6417 261.024C70.3529 263.159 72.4029 269.978 74.8227 273.464C77.755 277.689 81.7433 281.352 85.6418 284.67C93.4912 291.35 102.347 296.79 111.154 302.098C113.44 303.477 116.078 305.067 118.855 304.793C121.241 304.559 122.948 302.833 124.597 301.258C126.184 299.74 127.787 298.353 129.834 297.497C132.195 296.509 134.734 296.161 137.228 295.671C146.358 293.878 155.328 290.974 163.57 286.622C172.87 281.711 181.157 274.918 187.003 266.112C187.414 265.493 188.364 265.25 188.918 265.865C202.175 280.601 219.947 293.065 240.165 295.06C258.278 296.847 278.584 289.842 288.135 273.519C289.696 270.851 290.912 267.985 291.643 264.978C291.878 264.011 291.805 262.554 292.67 261.92C293.856 261.052 295.475 260.623 296.723 259.768C301.492 256.503 304.297 251.231 305.865 245.798C306.041 245.19 306.732 244.735 307.365 244.946C319.99 249.155 332.841 252.666 345.863 255.413C352.342 256.78 358.859 257.947 365.404 258.948C370.873 259.784 376.591 260.641 381.352 263.664C385.929 266.571 391.84 275.701 398.129 271.644L397.525 272.697C397.203 269.016 393.436 266.161 394.656 262.232C395.659 259.001 399.236 258.179 402.223 258.58C403.983 258.817 405.561 259.448 407.111 260.292C408.612 261.11 412.192 263.82 413.893 262.816C415.922 261.619 413.061 257.987 412.082 256.874C410.544 255.124 408.614 253.826 406.412 253.07C404.902 252.552 405.529 250.481 407.06 250.72C409.528 251.104 412.016 251.293 414.515 251.268C415.444 251.258 416.602 251.436 417.156 250.59C417.931 249.405 416.794 248.254 415.964 247.493C412.957 244.733 408.935 243.36 404.887 243.4V240.962C407.889 241.003 410.891 241.048 413.893 241.085C415.545 241.105 419.299 241.184 418.109 238.389C417.221 236.303 413.265 235.36 411.266 234.839C408.653 234.157 405.997 233.955 403.307 234.126C401.809 234.222 401.828 232.219 402.983 231.732C405.224 230.788 407.584 231.032 409.953 230.877C411.277 230.79 412.834 230.535 413.817 229.545C414.997 228.355 414.629 226.795 413.197 226.119C410.744 224.963 407.548 224.736 404.898 224.297C401.825 223.788 398.734 223.398 395.638 223.059C383.744 221.759 371.914 220.767 360.197 218.219C348.527 215.682 337.093 212.159 325.841 208.178C320.244 206.198 314.689 204.103 309.156 201.952C308.084 201.536 306.791 201.231 305.852 200.559C305.037 199.975 304.322 199.14 303.558 198.48C301.837 196.993 300.041 195.596 298.191 194.272C289.826 188.285 280.506 183.621 270.936 179.901C259.911 175.616 248.378 172.47 236.662 170.801C226.987 169.422 217.08 169.065 207.433 170.813C206.305 171.018 205.197 170.734 204.068 170.566C202.542 170.339 201.018 170.104 199.495 169.861C196.453 169.375 193.416 168.853 190.388 168.288C184.561 167.2 178.763 165.95 173.021 164.477C161.474 161.514 150.461 157.351 139.47 152.783C134.124 150.562 128.754 148.374 123.234 146.618C121.506 146.068 116.544 143.725 115.196 145.798C113.641 148.189 117.138 150.378 118.812 151.322C120.542 152.299 122.291 153.21 123.553 154.79C124.357 155.796 123.347 157.492 122.076 156.704C119.878 155.343 117.54 154.306 115.03 153.67C113.694 153.332 112.336 153.103 110.961 153.006C109.87 152.93 108.29 152.693 107.312 153.315C104.479 155.116 107.992 157.09 109.541 157.895C112.205 159.28 114.875 160.653 117.542 162.033L116.311 164.138C112.658 162.142 108.146 161.423 104.119 162.694C103.147 163.001 101.564 163.881 102.174 165.193C102.496 165.884 103.787 166.366 104.405 166.7C106.537 167.852 108.753 168.807 111.04 169.605C112.544 170.13 111.927 172.202 110.392 171.956C108.101 171.589 97.8326 172.556 100.564 176.97C101.671 178.76 104.967 178.007 106.723 178.006C108.598 178.005 110.412 178.288 112.14 179.043C115.043 180.311 117.468 183.093 116.264 186.42C115.021 189.858 110.882 190.609 109.01 193.508V192.278C112.278 198.251 120.68 194.195 125.532 193.382C132.18 192.267 138.571 194.627 144.746 196.799C158.031 201.472 171.601 205.297 185.352 208.332C186.7 208.629 186.394 210.75 185.028 210.726C167.476 210.413 150.592 216.566 135.921 225.905C128.502 230.629 121.612 236.15 115.265 242.233C108.661 248.563 103.023 255.787 96.3395 262.036C93.2546 264.92 90.0144 266.25 85.9727 264.497C82.7437 263.097 79.3984 259.834 75.6417 261.024C74.1426 261.499 73.5013 259.146 74.9938 258.673Z" fill="black"/>
<path d="M236.199 294.515C245.742 296.181 255.739 295.344 264.858 292.066C273.908 288.813 282.187 282.9 287.398 274.725C289.126 272.014 290.507 269.087 291.378 265.988C291.592 265.228 291.777 264.459 291.928 263.683C292.011 263.261 292.013 262.734 292.233 262.357C292.446 261.994 292.799 261.871 293.165 261.714C294.724 261.043 296.161 260.203 297.504 259.168C298.098 258.71 299.17 259.182 299.295 259.896C300.826 268.632 299.413 277.532 294.71 285.108C291.127 290.879 285.965 295.733 280.073 299.099C277.929 300.324 275.585 301.483 273.148 301.98L272.824 299.586C278.159 299.469 283.448 300.43 288.47 302.206C293.115 303.85 297.506 306.102 301.85 308.409C305.826 310.521 309.798 312.727 314.043 314.262C316.028 314.979 318.075 315.552 320.165 315.862C322.509 316.21 324.895 316.112 327.256 316.245C329.707 316.384 332.318 316.7 334.446 318.026C336.889 319.549 338.02 322.09 338.45 324.85C338.827 327.271 339.071 329.716 339.408 332.143C339.767 334.737 340.144 337.329 340.522 339.921C341.334 345.486 342.159 351.05 342.893 356.627C343.214 359.064 343.518 361.504 343.773 363.949C344.074 366.824 344.427 369.757 344.181 372.647C343.93 375.606 343.009 378.49 340.869 380.631C338.937 382.562 336.274 383.638 333.549 383.078C329.484 382.242 327.417 378.374 325.773 374.953C324.911 373.159 324.082 371.324 322.931 369.692C321.682 367.922 320.053 367.026 318.116 366.136C312.602 363.603 306.649 362.128 300.665 361.232C288.621 359.427 276.371 359.942 264.296 358.437C258.228 357.68 252.203 356.449 246.491 354.221C241.442 352.251 236.633 349.653 232.19 346.552C223.376 340.399 215.924 332.29 210.682 322.894C204.919 312.564 202.243 300.803 201.549 289.054C201.378 286.166 201.36 283.272 201.499 280.382C201.538 279.562 202.546 278.727 203.333 279.329C210.862 285.092 219.244 289.818 228.333 292.613C230.914 293.406 233.541 294.04 236.199 294.515C236.847 294.631 237.213 295.421 237.05 296.014C236.862 296.697 236.201 296.982 235.551 296.866C226.049 295.167 217.019 291.342 208.888 286.184C206.555 284.705 204.296 283.113 202.102 281.434L203.937 280.382C203.649 286.376 204.052 292.389 205.027 298.308C205.958 303.963 207.303 309.531 209.481 314.843C213.414 324.436 219.749 333.007 227.531 339.829C235.67 346.964 245.449 352.16 256.018 354.563C267.661 357.21 279.688 356.941 291.531 357.819C297.431 358.257 303.343 358.964 309.086 360.425C311.912 361.144 314.691 362.05 317.383 363.174C319.636 364.116 322.021 365.044 323.736 366.848C326.446 369.702 327.545 373.596 329.542 376.906C330.403 378.332 331.466 379.67 333 380.358C334.998 381.254 337.21 380.674 338.821 379.216C343.063 375.375 341.834 368.619 341.294 363.563C340.752 358.482 340.034 353.419 339.306 348.361C338.548 343.102 337.755 337.847 337.028 332.583C336.708 330.266 336.466 327.935 336.118 325.624C335.734 323.07 334.845 320.794 332.367 319.674C330.255 318.72 327.789 318.679 325.516 318.613C323.203 318.545 320.912 318.486 318.631 318.064C314.393 317.281 310.39 315.528 306.555 313.615C298.052 309.371 289.921 304.254 280.411 302.578C277.907 302.137 275.365 301.968 272.824 302.024C271.476 302.053 271.133 299.909 272.5 299.629C273.35 299.456 274.177 299.185 274.985 298.873C275.613 298.632 275.623 298.626 276.275 298.324C276.821 298.071 277.359 297.802 277.89 297.519C280.432 296.167 282.806 294.528 284.95 292.691C290.356 288.061 294.575 282.037 296.424 275.116C297.693 270.365 297.791 265.378 296.944 260.544L298.734 261.273C297.157 262.489 295.45 263.392 293.61 264.148L294.461 263.297C292.818 273.481 286.033 282.257 277.765 288.108C270.083 293.545 260.862 296.594 251.536 297.502C246.204 298.021 240.826 297.787 235.551 296.866C234.902 296.752 234.537 295.957 234.699 295.366C234.887 294.681 235.548 294.401 236.199 294.515Z" fill="black"/>
<path d="M320.625 366.001C327.007 369.254 326.773 380.686 334.116 381.948C337.529 382.535 340.817 379.828 342.085 376.605C343.353 373.382 343.087 369.787 342.785 366.337C342.218 359.872 340.863 350.626 339.598 341.966C356.969 329.72 377.265 321.345 399.246 318.136C403.285 325.7 409.701 331.904 414.831 338.872C420.741 346.899 425.068 357.601 420.999 366.701C419.427 370.219 416.679 373.265 415.974 377.054C414.703 383.888 420.287 391.736 416.244 397.391C411.642 403.829 399.921 399.588 394.664 405.503C393.158 407.197 392.486 409.454 391.403 411.445C388.931 415.987 384.081 419.145 378.926 419.568C379.599 421.71 380.273 423.853 380.946 425.995C375.554 427.466 370.166 424.231 364.965 422.187C359.763 420.143 352.449 420.021 350.053 425.07C348.371 428.618 349.142 434.337 345.299 435.145C344.036 435.41 342.743 434.903 341.601 434.302C333.358 429.958 328.762 419.659 331.033 410.623C322.856 402.359 306.213 406.683 303.091 417.881C298.004 415.683 292.886 413.445 288.015 410.81C293.975 393.255 303.368 377.293 315.371 363.689C317.143 364.362 318.897 365.12 320.625 366.001Z" fill="black"/>
<path d="M321.241 364.948C324.248 366.522 325.906 369.626 327.323 372.565C328.584 375.178 329.824 378.499 332.401 380.04C336.026 382.209 339.966 379.218 341.14 375.64C341.979 373.083 341.883 370.355 341.68 367.706C341.5 365.346 341.244 362.993 340.962 360.644C340.227 354.512 339.316 348.401 338.423 342.29C338.337 341.703 338.494 341.258 338.983 340.914C352.75 331.228 368.252 324.031 384.56 319.844C389.292 318.628 394.088 317.671 398.922 316.961C399.449 316.883 400.022 317.008 400.298 317.521C405.168 326.568 413.182 333.348 418.459 342.111C420.961 346.266 422.914 350.87 423.571 355.701C424.226 360.518 423.381 365.168 420.981 369.402C419.806 371.473 418.373 373.464 417.59 375.731C416.882 377.784 416.895 379.925 417.234 382.052C417.903 386.248 419.649 390.601 418.68 394.885C417.811 398.732 414.632 401.079 410.976 402.014C407.467 402.911 403.787 402.822 400.281 403.727C398.701 404.135 397.149 404.768 395.958 405.916C394.263 407.551 393.6 409.921 392.515 411.949C390.392 415.918 386.573 418.914 382.268 420.179C381.178 420.499 380.057 420.685 378.927 420.787L380.102 419.244C380.775 421.386 381.449 423.529 382.122 425.671C382.317 426.293 381.891 427.01 381.27 427.171C378.031 428.009 374.746 427.394 371.656 426.27C368.766 425.219 366.033 423.703 363.081 422.827C359.323 421.713 353.482 421.291 351.277 425.349C349.434 428.741 350.548 435.065 345.79 436.282C342.945 437.009 339.998 434.972 337.868 433.303C335.795 431.678 334.042 429.644 332.67 427.4C329.57 422.33 328.437 416.093 329.858 410.299L330.171 411.485C324.188 405.516 313.577 406.71 307.796 412.359C306.135 413.983 304.906 415.968 304.267 418.206C304.031 419.034 303.191 419.243 302.476 418.934C297.38 416.731 292.29 414.499 287.4 411.863C286.951 411.621 286.672 410.98 286.84 410.486C291.488 396.838 298.23 383.93 306.815 372.345C309.246 369.066 311.812 365.89 314.51 362.827C314.772 362.53 315.319 362.369 315.696 362.514C317.582 363.236 319.438 364.036 321.241 364.948C322.641 365.657 321.409 367.761 320.01 367.053C318.394 366.236 316.739 365.512 315.047 364.864L316.233 364.551C306.945 375.098 299.277 387.04 293.576 399.887C291.943 403.567 290.488 407.324 289.191 411.135L288.63 409.758C293.521 412.394 298.611 414.626 303.707 416.829L301.916 417.558C303.756 411.117 309.701 406.712 316.119 405.492C319.314 404.884 322.69 404.968 325.788 406.013C327.313 406.527 328.779 407.247 330.073 408.206C330.724 408.688 331.667 409.292 332.086 410.008C332.395 410.538 332.155 411.131 332.04 411.68C331.946 412.132 331.865 412.587 331.809 413.046C330.868 420.737 334.757 428.895 341.466 432.832C342.855 433.647 344.946 434.708 346.235 433.276C347.168 432.241 347.398 430.533 347.666 429.188C348.005 427.49 348.312 425.751 349.128 424.202C349.929 422.682 351.271 421.453 352.829 420.737C356.182 419.197 360.162 419.439 363.634 420.449C368.158 421.764 372.25 424.692 377.036 425.101C378.251 425.205 379.44 425.126 380.622 424.82L379.771 426.32C379.097 424.177 378.424 422.035 377.751 419.892C377.495 419.078 378.174 418.417 378.926 418.349C383.062 417.978 387.056 415.679 389.448 412.28C390.804 410.355 391.467 408.073 392.718 406.092C393.727 404.493 395.13 403.21 396.837 402.389C400.083 400.829 403.747 400.707 407.257 400.235C410.37 399.815 413.9 399.086 415.6 396.142C417.616 392.65 415.966 388.131 415.218 384.507C414.782 382.393 414.414 380.197 414.62 378.032C414.841 375.711 415.726 373.604 416.864 371.59C418.002 369.573 419.371 367.645 420.2 365.47C420.993 363.392 421.375 361.207 421.374 358.985C421.372 354.32 419.811 349.754 417.661 345.661C413.046 336.872 405.398 330.22 400.059 321.916C399.396 320.885 398.774 319.83 398.193 318.751L399.57 319.312C382.861 321.767 366.671 327.276 351.964 335.583C347.926 337.864 344.006 340.35 340.213 343.019L340.773 341.642C341.624 347.46 342.483 353.278 343.212 359.113C343.524 361.608 343.811 364.106 344.028 366.61C344.273 369.441 344.444 372.317 343.815 375.114C342.774 379.741 338.569 384.181 333.468 383.061C329.949 382.288 327.883 379.189 326.369 376.173C324.753 372.952 323.41 368.833 320.01 367.053C318.62 366.326 319.851 364.221 321.241 364.948Z" fill="black"/>
<path d="M69.5452 19.7668L59.2192 40.6896C58.0355 43.0881 55.7474 44.7505 53.1004 45.1351L30.0108 48.4902C23.3453 49.4588 20.6838 57.6501 25.507 62.3515L42.2148 78.6376C44.1301 80.5046 45.0041 83.1944 44.552 85.8306L40.6078 108.827C39.4692 115.466 46.4371 120.528 52.3989 117.394L73.051 106.536C75.4184 105.292 78.2467 105.292 80.6141 106.536L101.266 117.394C107.228 120.528 114.196 115.466 113.057 108.827L109.113 85.8306C108.661 83.1944 109.535 80.5046 111.45 78.6376L128.158 62.3515C132.981 57.6501 130.32 49.4588 123.654 48.4902L100.565 45.1351C97.9177 44.7505 95.6296 43.0881 94.4459 40.6896L84.1199 19.7668C81.139 13.7268 72.5261 13.7268 69.5452 19.7668Z" fill="#03EBB3"/>
<path d="M70.5979 20.382C68.2397 25.1602 65.8815 29.9384 63.5233 34.7166C62.4762 36.8383 61.4335 38.9621 60.382 41.0817C58.9148 44.0392 56.2226 45.9039 52.978 46.3754L35.0715 48.9774C33.2045 49.2487 31.2332 49.3757 29.4017 49.8543C25.5334 50.8652 23.3614 55.0838 24.6476 58.8409C25.3258 60.822 27.1272 62.2287 28.5833 63.6481L35.7557 70.6394C37.8761 72.7062 39.9963 74.773 42.1166 76.8397C42.5791 77.2906 43.0652 77.73 43.4934 78.2143C45.4376 80.414 46.1896 83.2791 45.7269 86.1579C44.8741 91.4636 43.9097 96.7537 43.0012 102.05C42.6074 104.346 42.2202 106.644 41.8197 108.939C41.1859 112.571 43.4709 116.072 47.061 116.944C49.6228 117.566 51.6891 116.391 53.8461 115.257C56.6904 113.762 59.5348 112.266 62.3791 110.771C65.1531 109.313 67.927 107.854 70.701 106.396C71.2695 106.097 71.835 105.791 72.4069 105.499C74.8318 104.259 77.6866 104.007 80.2388 105.035C82.0809 105.776 83.8242 106.848 85.5776 107.77C88.6749 109.398 91.7722 111.027 94.8696 112.655L101.502 116.142C102.595 116.716 103.734 117.114 104.986 117.126C107.09 117.144 109.097 116.158 110.434 114.543C111.675 113.044 112.174 111.048 111.879 109.135C111.787 108.538 111.675 107.944 111.573 107.349C111.048 104.292 110.524 101.235 110 98.1777C109.455 94.9995 108.91 91.8213 108.364 88.6431C108.231 87.8647 108.094 87.0866 107.964 86.3075C107.607 84.1744 107.845 82.0708 108.84 80.1313C109.865 78.1344 111.82 76.5756 113.406 75.0291C115.864 72.6328 118.323 70.2365 120.781 67.8403L126.704 62.067C127.32 61.4666 127.933 60.8804 128.389 60.1401C129.4 58.4994 129.657 56.5171 129.136 54.6652C128.617 52.8183 127.365 51.2663 125.663 50.3805C124.748 49.9042 123.746 49.726 122.737 49.5795C120.129 49.2005 117.521 48.8215 114.913 48.4425C111.478 47.9435 108.044 47.4444 104.609 46.9454C102.644 46.6598 100.414 46.5755 98.5374 45.8708C96.3011 45.0311 94.4605 43.4101 93.379 41.2756C93.0886 40.7026 92.8103 40.1233 92.526 39.5473C91.1502 36.7597 89.7745 33.9722 88.3988 31.1845C86.9725 28.2946 85.5462 25.4046 84.1199 22.5147C83.0934 20.4347 82.2046 18.3569 80.0169 17.215C76.5327 15.3965 72.3341 16.9597 70.5979 20.382C69.8879 21.7815 67.7838 20.549 68.4928 19.1516C70.5618 15.0733 75.4313 13.025 79.7911 14.4903C81.9957 15.2313 83.8706 16.7669 84.9943 18.8099C85.2835 19.3357 85.5344 19.8851 85.7999 20.4229C88.6307 26.1587 91.4614 31.8944 94.2921 37.6302C94.6625 38.3806 95.0309 39.1321 95.4032 39.8815C96.1949 41.4749 97.4021 42.7871 99.0732 43.478C99.9369 43.8351 100.854 43.9546 101.769 44.0876L105.257 44.5945C111.333 45.4774 117.409 46.3603 123.485 47.2432C127.014 47.756 129.91 49.856 131.221 53.2249C132.616 56.8111 131.545 60.7447 128.842 63.3872C124.556 67.5767 120.259 71.7538 115.967 75.9371C114.57 77.299 112.975 78.6019 111.739 80.1209C110.486 81.6612 109.989 83.7115 110.315 85.6594C110.45 86.4713 110.593 87.2821 110.732 88.0933C111.813 94.3919 112.893 100.691 113.973 106.989C114.066 107.528 114.165 108.067 114.249 108.608C114.635 111.083 114.147 113.627 112.635 115.661C109.817 119.452 104.795 120.578 100.61 118.425C95.5552 115.824 90.5449 113.133 85.5135 110.488C83.6837 109.526 81.8637 108.542 80.0226 107.601C78.0117 106.574 75.6473 106.575 73.6374 107.604C73.0523 107.904 72.4734 108.216 71.8916 108.522C66.2039 111.512 60.5163 114.502 54.8286 117.492C54.2377 117.803 53.6491 118.119 53.0556 118.425C51.0962 119.434 48.9466 119.797 46.7745 119.374C44.4702 118.925 42.4162 117.535 41.0301 115.661C39.4948 113.585 39.0279 111.022 39.4324 108.503C40.2921 103.15 41.266 97.8121 42.1826 92.4682C42.5719 90.1986 42.9706 87.9305 43.3505 85.6594C43.6828 83.6725 43.1568 81.576 41.8493 80.0286C41.4158 79.5155 40.9002 79.0583 40.4198 78.5901C35.8492 74.1348 31.2786 69.6796 26.708 65.2243C24.9598 63.5203 23.1731 61.9547 22.3257 59.5707C20.8265 55.3531 22.8048 50.3395 26.7719 48.2755C28.7506 47.246 31.0653 47.1146 33.2383 46.7988L43.4776 45.311L51.8966 44.0876C52.848 43.9494 53.7996 43.8228 54.691 43.4328C56.3166 42.7215 57.4837 41.4489 58.262 39.8815C60.9037 34.5615 63.5196 29.2285 66.1484 23.9021C66.9298 22.3186 67.7113 20.7351 68.4928 19.1516C69.1871 17.7448 71.2906 18.9785 70.5979 20.382Z" fill="#03EBB3"/>
<path d="M188.672 67.7737L180.301 72.4005C179.341 72.9308 178.182 72.9551 177.201 72.4652L168.644 68.1922C166.174 66.9587 163.361 69.0932 163.885 71.8043L165.698 81.1955C165.906 82.2721 165.571 83.382 164.802 84.1635L158.094 90.9814C156.157 92.9496 157.318 96.284 160.058 96.6239L169.55 97.8012C170.638 97.9361 171.59 98.5979 172.096 99.5707L176.507 108.057C177.781 110.507 181.311 110.434 182.481 107.933L186.534 99.2691C186.998 98.2759 187.922 97.575 189.003 97.3947L198.438 95.8218C201.161 95.3678 202.182 91.9878 200.165 90.1022L193.178 83.5705C192.377 82.8218 191.996 81.7268 192.158 80.6425L193.578 71.1838C193.988 68.4532 191.089 66.4381 188.672 67.7737Z" fill="black"/>
<path d="M189.287 68.8262C187.395 69.8719 185.503 70.9176 183.611 71.9633C182.75 72.4389 181.895 72.9246 181.029 73.3906C179.551 74.1858 177.993 74.1981 176.488 73.4687C174.349 72.4326 172.234 71.3449 170.108 70.2834C169.42 69.9397 168.738 69.5499 168.031 69.2461C166.612 68.6364 164.938 69.6998 165.044 71.2911C165.093 72.0107 165.303 72.7403 165.44 73.4467L166.235 77.5657C166.434 78.5966 166.64 79.6265 166.832 80.6587C167.138 82.2982 166.801 83.8056 165.644 85.0454C164.082 86.7194 162.427 88.3149 160.821 89.9468C160.212 90.5664 159.583 91.172 158.99 91.808C158.161 92.6981 158.115 94.1057 159.09 94.9293C159.339 95.1393 159.611 95.2678 159.921 95.3585C160.058 95.3986 160.302 95.4449 160.071 95.4064C160.102 95.4117 160.135 95.4137 160.167 95.4184C160.525 95.4706 160.886 95.5075 161.245 95.552L165.253 96.0492L168.915 96.5034C170.248 96.6688 171.507 96.9597 172.464 98.001C173.085 98.6768 173.458 99.552 173.877 100.358L175.804 104.064L177.381 107.099C177.848 107.996 178.511 108.711 179.615 108.63C180.667 108.553 181.197 107.811 181.606 106.938L183.073 103.802L184.836 100.033C185.233 99.1834 185.573 98.3086 186.207 97.5996C187.083 96.6195 188.245 96.2916 189.477 96.0862L193.173 95.47L197.084 94.8181C197.9 94.682 198.834 94.6394 199.429 93.9922C201.21 92.0549 198.534 90.2455 197.259 89.0531C195.618 87.5193 193.931 86.0226 192.331 84.4463C191.113 83.2467 190.776 81.7254 191.019 80.0799C191.174 79.0252 191.335 77.9713 191.493 76.917L192.124 72.7175L192.335 71.3084C192.353 71.1898 192.374 71.0709 192.389 70.9518C192.392 70.9252 192.398 70.8988 192.4 70.8721C192.373 71.1264 192.402 70.6865 192.397 70.5826C192.318 69.038 190.64 68.1282 189.287 68.8262C187.895 69.5444 186.66 67.4414 188.057 66.7211C189.981 65.7284 192.338 66.0627 193.761 67.7607C194.788 68.9867 194.919 70.4045 194.691 71.9224C194.3 74.5256 193.91 77.1289 193.519 79.732C193.355 80.8253 193.071 81.6292 193.874 82.543C194.403 83.1439 195.059 83.662 195.643 84.2072C197.424 85.8726 199.242 87.5068 200.991 89.2066C203.645 91.7865 202.333 96.3504 198.653 97.0153C196.21 97.4569 193.752 97.8324 191.303 98.2407C190.504 98.3738 189.566 98.4107 188.802 98.7042C187.818 99.0818 187.489 100.092 187.079 100.967L183.725 108.137C183.139 109.391 182.255 110.367 180.915 110.835C178.999 111.504 176.833 110.724 175.699 109.073C175.238 108.401 174.906 107.617 174.531 106.896L172.497 102.982C172.029 102.083 171.571 101.178 171.094 100.283C170.556 99.2749 169.884 99.0616 168.992 98.951L161.143 97.9773C160.059 97.8429 158.962 97.7709 158.015 97.1565C156.355 96.0786 155.52 93.9466 156.095 92.0327C156.428 90.9271 157.184 90.1674 157.964 89.3752L160.85 86.4416L163.546 83.7021C164.193 83.044 164.649 82.3838 164.498 81.3929C164.123 78.9294 163.549 76.4805 163.077 74.0338C162.91 73.1709 162.664 72.2732 162.611 71.3921C162.48 69.2363 164.035 67.2021 166.14 66.7338C167.517 66.4274 168.703 66.8618 169.905 67.4624L173.47 69.2424L177.052 71.0309C177.94 71.4747 178.729 71.8316 179.729 71.324C181.881 70.2316 183.967 68.9815 186.079 67.8139C186.738 67.4496 187.398 67.0854 188.057 66.7211C189.431 65.9616 190.662 68.0663 189.287 68.8262Z" fill="black"/>
<path d="M22.6806 168.367C23.1376 171.513 23.5946 174.66 24.0516 177.806C24.2511 179.18 24.454 180.554 24.6502 181.928C24.9638 184.124 24.3458 186.138 22.7075 187.668C20.1377 190.07 17.5458 192.448 14.9651 194.838C14.1594 195.584 13.32 196.306 12.5446 197.084C11.0215 198.612 11.1778 201.242 12.9291 202.544C13.8924 203.26 15.2426 203.333 16.3934 203.531L22.2692 204.539L27.458 205.429C29.4831 205.777 31.2873 206.603 32.3754 208.467C32.948 209.447 33.3604 210.548 33.8355 211.577L36.4342 217.201C37.0552 218.545 37.6723 219.891 38.2972 221.233C39.037 222.822 40.4565 223.907 42.2875 223.632C43.8777 223.393 44.6693 222.245 45.354 220.943L47.8042 216.283L50.5788 211.006C51.2986 209.637 51.9233 208.318 53.2183 207.365C54.577 206.366 56.1665 206.253 57.7699 206.061L63.5957 205.367L68.9226 204.732C69.2663 204.691 69.6124 204.658 69.955 204.609C69.637 204.655 69.9586 204.606 70.0109 204.593C70.1917 204.548 70.3724 204.513 70.55 204.456C70.7918 204.377 71.0112 204.276 71.2322 204.146C71.689 203.878 72.0802 203.512 72.3736 203.07C73.4032 201.52 73.0939 199.664 71.8368 198.366C70.8467 197.344 69.8506 196.328 68.8575 195.309C66.6243 193.018 64.2575 190.803 62.1376 188.406C60.9838 187.101 60.4124 185.375 60.6221 183.641C60.6739 183.212 60.7635 182.793 60.8472 182.37L61.8625 177.243L63.029 171.352C63.2614 170.178 63.6654 168.928 63.2867 167.745C62.6119 165.638 60.2047 164.697 58.2432 165.609C57.0421 166.168 55.8639 166.783 54.676 167.369C51.7475 168.815 48.8371 170.306 45.8871 171.706C43.7461 172.723 41.6384 172.436 39.6295 171.313L35.3383 168.915L29.9981 165.93C29.0267 165.387 27.9194 164.566 26.7952 164.401C25.7035 164.241 24.568 164.631 23.7784 165.393C22.8565 166.283 22.5686 167.444 22.7242 168.691C22.8058 169.345 22.1055 169.91 21.5052 169.91C20.7786 169.91 20.3681 169.347 20.2862 168.691C19.9102 165.677 21.9836 162.729 24.9666 162.085C26.8978 161.668 28.5319 162.318 30.1704 163.233C33.5098 165.1 36.8492 166.966 40.1886 168.833C41.614 169.629 42.9649 170.355 44.6469 169.606C45.7505 169.115 46.8223 168.533 47.9055 167.998C50.9572 166.492 53.989 164.935 57.0646 163.479C59.646 162.256 62.7299 162.787 64.5512 165.071C65.9273 166.796 66.0208 168.763 65.6111 170.832C64.8701 174.574 64.129 178.316 63.388 182.058C63.0855 183.586 62.6812 185.054 63.6911 186.464C64.3555 187.391 65.3143 188.181 66.1062 188.994C68.6082 191.561 71.1245 194.115 73.6127 196.696C75.2601 198.404 75.9199 200.858 75.0586 203.12C74.1831 205.419 72.2185 206.767 69.8216 207.062C66.2637 207.501 62.702 207.911 59.1424 208.336L56.9005 208.603C56.7169 208.625 56.5328 208.644 56.3495 208.669C56.2993 208.675 56.2485 208.679 56.1985 208.687C56.3985 208.656 55.7451 208.796 55.6247 208.834C54.0508 209.339 53.4568 210.767 52.7567 212.098C50.9848 215.468 49.2129 218.838 47.441 222.207C46.5708 223.862 45.436 225.218 43.5851 225.82C40.9061 226.692 37.8403 225.495 36.4716 223.035C35.9291 222.06 35.5142 220.997 35.0468 219.985L32.3575 214.165C31.7503 212.85 31.1519 211.532 30.5358 210.222C30.1045 209.305 29.4686 208.542 28.5047 208.156C28.0247 207.963 27.4984 207.898 26.991 207.811C23.2777 207.174 19.5645 206.537 15.8513 205.9C14.4723 205.663 13.0456 205.527 11.8402 204.745C9.56288 203.267 8.43613 200.266 9.36918 197.675C9.91454 196.16 10.9981 195.191 12.1327 194.14L16.4376 190.154L20.4941 186.398C20.7663 186.146 21.0493 185.901 21.3089 185.635C22.1235 184.803 22.4102 183.493 22.3089 182.643C21.8917 179.14 21.2934 175.65 20.7865 172.16C20.6342 171.112 20.4819 170.063 20.3297 169.015C20.2352 168.364 20.4907 167.705 21.1811 167.516C21.7541 167.358 22.5854 167.711 22.6806 168.367Z" fill="black"/>
<path d="M275.569 148.74C277.448 147.544 280.208 148.033 281.561 149.803C282.913 151.573 282.662 154.365 281.014 155.864C279.535 157.209 276.962 157.945 276.959 159.944C276.957 161.31 276.458 171.447 275.184 171.94C284.675 173.592 287.902 173.943 296.794 170.238C292.025 168.618 292.284 159.611 291.914 155.693C291.467 150.955 291.052 145.894 289.163 141.413C288.22 139.177 286.875 137.033 284.856 135.62C282.341 133.858 279.379 134.672 276.902 133.298C276.03 132.815 275.425 131.974 274.706 131.283C271.942 128.626 267.539 128.334 263.907 129.562C260.275 130.789 254.963 135.241 252.006 137.68C264.236 139.059 268.125 141.777 273.194 143.021C274.827 143.421 271.194 143.828 272.638 144.69C274.082 145.552 275.225 147.196 274.9 148.846" fill="black"/>
<path d="M274.954 147.688C277.563 146.119 281.239 146.898 282.849 149.531C283.665 150.867 283.848 152.577 283.444 154.078C283.038 155.586 282.075 156.677 280.816 157.547C280.042 158.081 278.604 158.642 278.243 159.593C278.054 160.089 278.156 160.823 278.131 161.349C278.033 163.425 277.88 165.504 277.621 167.567C277.48 168.69 277.337 169.83 277.042 170.926C276.847 171.65 276.546 172.647 275.8 172.993L275.508 170.765C279.032 171.377 282.619 172.074 286.214 171.879C289.785 171.684 293.197 170.42 296.47 169.063V171.414C292.502 169.99 291.579 165.312 291.147 161.612C290.611 157.022 290.585 152.404 289.74 147.843C289.214 144.999 288.421 142.121 286.898 139.637C286.207 138.51 285.335 137.434 284.241 136.672C283.069 135.856 281.685 135.646 280.3 135.456C278.918 135.266 277.52 135.052 276.287 134.351C275.072 133.66 274.338 132.441 273.233 131.621C271.262 130.16 268.584 129.823 266.213 130.234C263.607 130.685 261.396 132.054 259.258 133.548C257.04 135.098 254.954 136.821 252.868 138.543L252.006 136.462C257.186 137.053 262.269 138.048 267.2 139.758C268.745 140.294 270.272 140.884 271.833 141.372C272.565 141.601 273.472 141.695 274.138 142.083C275.22 142.712 274.904 144.003 273.962 144.555C273.833 144.631 273.692 144.687 273.56 144.756C273.49 144.792 273.422 144.831 273.352 144.866C273.214 144.936 273.16 144.918 273.225 144.938C273.575 145.042 273.425 142.833 273.387 143.811C273.392 143.678 273.102 143.627 273.351 143.699C273.7 143.8 274.163 144.281 274.424 144.528C275.723 145.755 276.353 147.404 276.075 149.17C275.973 149.821 275.159 150.182 274.576 150.021C273.882 149.831 273.622 149.175 273.724 148.522C273.861 147.654 273.299 146.818 272.7 146.252C272.137 145.718 271.322 145.458 271.117 144.629C270.927 143.864 271.388 143.221 272.004 142.83C272.162 142.73 272.332 142.653 272.498 142.568C272.574 142.529 272.652 142.48 272.731 142.45C272.775 142.427 272.818 142.402 272.859 142.375C272.658 142.502 272.521 142.686 272.45 142.928V143.576C272.621 144.27 273.483 144.364 272.748 144.166C272.586 144.122 272.424 144.083 272.262 144.039C271.941 143.951 271.622 143.858 271.304 143.76C270.659 143.561 270.021 143.342 269.385 143.118C268.012 142.633 266.647 142.126 265.262 141.674C260.955 140.267 256.504 139.413 252.006 138.9C251.085 138.795 250.237 137.568 251.144 136.819C253.063 135.235 254.987 133.655 256.995 132.182C258.963 130.74 261.038 129.317 263.344 128.471C265.803 127.569 268.624 127.377 271.168 128.022C272.409 128.336 273.617 128.879 274.642 129.649C275.76 130.488 276.563 131.831 277.848 132.414C279.109 132.986 280.565 133.023 281.911 133.246C283.353 133.484 284.697 133.969 285.867 134.86C288.247 136.671 289.716 139.332 290.735 142.094C292.61 147.181 292.975 152.83 293.303 158.202C293.438 160.414 293.6 162.643 294.176 164.791C294.636 166.504 295.46 168.468 297.118 169.063C298.315 169.492 298.226 170.955 297.118 171.414C293.622 172.864 290.023 174.109 286.214 174.317C282.411 174.524 278.589 173.764 274.86 173.116C273.859 172.942 273.644 171.317 274.569 170.888C274.517 170.912 274.437 171.003 274.446 171.013C274.537 171.116 274.262 171.052 274.454 170.977C274.469 170.971 274.521 170.844 274.521 170.845C274.388 171.163 274.53 170.814 274.557 170.729C274.616 170.543 274.671 170.357 274.72 170.168C274.918 169.394 275.05 168.568 275.153 167.798C275.402 165.953 275.545 164.036 275.651 162.157C275.74 160.573 275.553 158.916 276.652 157.625C278.1 155.926 280.885 155.471 281.194 152.935C281.528 150.183 278.507 148.396 276.184 149.793C274.837 150.603 273.61 148.496 274.954 147.688Z" fill="black"/>
<path d="M306.897 247.246C300.413 244.921 294.374 241.599 288.372 238.26C287 237.497 288.228 235.391 289.602 236.155C295.418 239.39 301.263 242.643 307.545 244.896C309.011 245.421 308.379 247.778 306.897 247.246Z" fill="black"/>
<path d="M264.929 157.346C263.638 160.073 260.12 161.521 257.281 160.518C256.681 160.306 256.216 159.676 256.429 159.019C256.621 158.427 257.285 157.94 257.929 158.167C258.209 158.267 258.492 158.333 258.785 158.386C258.938 158.413 258.521 158.367 258.753 158.378C258.822 158.381 258.892 158.389 258.962 158.392C259.116 158.399 259.27 158.399 259.424 158.392C259.48 158.39 259.536 158.386 259.592 158.382C259.634 158.379 259.676 158.375 259.718 158.37C259.812 158.36 259.774 158.366 259.603 158.388C259.698 158.417 259.92 158.333 260.017 158.311C260.155 158.279 260.291 158.243 260.425 158.201C260.506 158.176 260.586 158.149 260.666 158.12C260.704 158.106 260.937 158.027 260.756 158.089C260.575 158.15 260.822 158.057 260.843 158.048C260.907 158.018 260.97 157.986 261.032 157.954C261.157 157.889 261.28 157.819 261.399 157.744C261.519 157.67 261.652 157.532 261.782 157.482C261.671 157.525 261.628 157.605 261.766 157.489C261.819 157.444 261.872 157.397 261.924 157.35C262.027 157.255 262.126 157.156 262.221 157.053C262.268 157.001 262.314 156.949 262.359 156.895C262.486 156.745 262.375 156.813 262.351 156.912C262.379 156.794 262.544 156.634 262.607 156.527C262.687 156.394 262.758 156.256 262.824 156.116C263.098 155.538 263.972 155.343 264.492 155.679C265.086 156.062 265.222 156.728 264.929 157.346Z" fill="black"/>
<path d="M262.039 149.481L261.91 149.352C261.791 149.242 261.707 149.111 261.658 148.96C261.582 148.814 261.547 148.658 261.553 148.49C261.547 148.322 261.582 148.166 261.658 148.02C261.707 147.869 261.791 147.738 261.91 147.628L262.157 147.437C262.347 147.327 262.552 147.272 262.772 147.271L263.096 147.315C263.303 147.372 263.482 147.477 263.634 147.628L263.763 147.757C263.882 147.868 263.966 147.998 264.015 148.149C264.092 148.295 264.127 148.451 264.12 148.619C264.127 148.787 264.092 148.944 264.015 149.089C263.966 149.24 263.882 149.371 263.763 149.481L263.517 149.672C263.327 149.782 263.121 149.837 262.901 149.838L262.577 149.795C262.371 149.737 262.192 149.632 262.039 149.481Z" fill="black"/>
<path d="M267.147 144.81C266.672 143.518 265.274 142.672 263.926 142.664C262.442 142.655 261.026 143.549 260.248 144.788C259.272 146.341 259.103 148.251 258.584 149.976C258.336 150.8 258.031 151.642 257.429 152.279C257.121 152.605 256.724 152.877 256.289 153.001C256.064 153.064 255.824 153.099 255.59 153.101C255.505 153.102 254.99 153.092 255.112 153.028C253.724 153.756 252.49 151.652 253.882 150.923C254.201 150.756 254.498 150.648 254.861 150.629C255.042 150.62 255.313 150.699 255.486 150.663C255.757 150.607 255.877 150.327 255.991 150.061C256.393 149.119 256.563 148.059 256.808 147.07C257.301 145.08 258.045 143.121 259.69 141.799C261.253 140.543 263.241 139.945 265.225 140.379C267.211 140.814 268.804 142.275 269.497 144.162C269.724 144.78 269.243 145.497 268.646 145.661C267.966 145.848 267.374 145.43 267.147 144.81Z" fill="black"/>
<path d="M405.898 248.792C406.248 250.559 406.224 252.355 405.797 254.108C405.646 254.727 404.911 255.157 404.297 254.959C403.654 254.751 403.284 254.124 403.446 253.459C403.494 253.262 403.538 253.063 403.576 252.863C403.592 252.778 403.607 252.692 403.62 252.606C403.632 252.534 403.707 252.261 403.627 252.585C403.715 252.231 403.704 251.818 403.711 251.455C403.719 251.078 403.708 250.7 403.676 250.323C403.669 250.236 403.661 250.15 403.651 250.063C403.642 249.978 403.657 249.725 403.651 250.041C403.655 249.85 403.584 249.626 403.548 249.44C403.424 248.816 403.725 248.094 404.399 247.941C405.004 247.803 405.766 248.123 405.898 248.792Z" fill="black"/>
<path d="M404.164 237.911C404.685 239.788 404.904 241.761 404.788 243.706C404.75 244.342 404.255 244.956 403.569 244.925C402.941 244.897 402.309 244.388 402.35 243.706C402.404 242.804 402.389 241.898 402.296 240.998C402.285 240.894 402.273 240.791 402.261 240.687C402.227 240.393 402.291 240.866 402.249 240.598C402.21 240.357 402.172 240.117 402.126 239.878C402.04 239.434 401.934 238.995 401.813 238.559C401.643 237.945 402.024 237.206 402.665 237.06C403.31 236.913 403.981 237.254 404.164 237.911Z" fill="black"/>
<path d="M402.458 228.395C402.63 229.257 402.802 230.118 402.975 230.979C403.04 231.303 403.023 231.626 402.852 231.919C402.704 232.171 402.414 232.413 402.123 232.479C401.811 232.55 401.461 232.534 401.184 232.356C400.928 232.191 400.686 231.937 400.624 231.627C400.451 230.766 400.279 229.905 400.107 229.043C400.042 228.719 400.058 228.396 400.23 228.104C400.378 227.851 400.667 227.61 400.958 227.544C401.27 227.473 401.62 227.488 401.897 227.667C402.153 227.832 402.396 228.086 402.458 228.395Z" fill="black"/>
<path d="M321.714 205.692C320.698 209.401 319.754 213.139 318.661 216.826C318.2 218.38 317.288 219.638 315.585 219.867C313.933 220.09 312.105 219.571 310.498 219.224C308.718 218.838 306.959 218.354 305.233 217.774C304.37 217.484 303.514 217.171 302.669 216.832C301.897 216.522 301.159 216.216 300.757 215.433C300.396 214.732 300.433 213.95 300.541 213.194C300.677 212.24 300.852 211.29 301.024 210.342C301.359 208.492 301.733 206.649 302.145 204.814C302.601 202.788 303.206 200.792 303.651 198.766C303.839 197.908 304.429 197.017 305.459 197.3C306.324 197.538 306.707 198.609 306.268 199.361C306.008 199.806 305.398 200.091 304.891 199.921L304.825 199.899C303.345 199.403 303.979 197.048 305.473 197.548L305.539 197.57L304.163 198.131L304.19 198.083L304.024 198.698L304.017 198.615L304.184 199.23L304.273 199.337L305.459 199.651L305.373 199.663L305.911 199.349L305.804 199.461L306.118 198.923C305.672 200.177 305.425 201.566 305.107 202.862C304.754 204.303 304.423 205.75 304.117 207.203C303.811 208.655 303.528 210.112 303.27 211.574C303.15 212.253 303.006 212.938 302.924 213.623C302.872 214.063 302.795 214.252 303.183 214.427C305.775 215.597 308.654 216.35 311.428 216.933C312.599 217.179 313.986 217.611 315.194 217.473C316.294 217.348 316.408 215.831 316.641 214.981C317.548 211.669 318.456 208.356 319.363 205.043C319.777 203.532 322.129 204.174 321.714 205.692Z" fill="black"/>
<path d="M349.993 238.089C349.707 239.137 349.474 240.199 349.303 241.272C349.283 241.395 349.264 241.519 349.246 241.643C349.242 241.672 349.193 242.024 349.221 241.816C349.183 242.105 349.15 242.396 349.12 242.687C349.066 243.227 349.028 243.769 349.003 244.311C348.973 244.947 348.464 245.561 347.784 245.53C347.149 245.502 346.533 244.994 346.565 244.311C346.674 241.992 347.031 239.681 347.642 237.441C347.81 236.826 348.516 236.388 349.142 236.59C349.771 236.794 350.173 237.43 349.993 238.089Z" fill="black"/>
<path d="M340.543 233.546C339.315 236.387 338.836 239.508 339.035 242.587C339.078 243.245 338.444 243.806 337.816 243.806C337.121 243.806 336.64 243.247 336.597 242.587C336.368 239.054 337.037 235.557 338.438 232.316C338.7 231.712 339.587 231.575 340.106 231.879C340.73 232.244 340.806 232.94 340.543 233.546Z" fill="black"/>
<path d="M325.809 235.028C325.579 234.913 325.349 234.798 325.119 234.684C324.977 234.607 324.863 234.502 324.777 234.37C324.67 234.252 324.597 234.114 324.559 233.955C324.509 233.793 324.501 233.631 324.538 233.469C324.545 233.307 324.593 233.156 324.682 233.016L324.873 232.769C325.025 232.618 325.204 232.514 325.411 232.456L325.735 232.412C325.955 232.413 326.16 232.468 326.35 232.579C326.58 232.693 326.809 232.808 327.039 232.923C327.181 233 327.295 233.104 327.381 233.237C327.489 233.355 327.561 233.493 327.599 233.652C327.65 233.814 327.657 233.976 327.621 234.138C327.613 234.3 327.565 234.451 327.476 234.591L327.286 234.838C327.134 234.989 326.954 235.093 326.748 235.151L326.424 235.195C326.204 235.194 325.999 235.138 325.809 235.028Z" fill="black"/>
<path d="M219.627 182.61C223.696 183.627 227.696 184.918 231.592 186.472C231.959 186.618 232.361 186.802 232.506 187.169C232.626 187.47 232.535 187.809 232.444 188.12C231.657 190.803 230.869 193.485 230.082 196.167C229.917 196.729 229.659 197.382 229.087 197.509C228.758 197.581 228.421 197.448 228.11 197.317C223.296 195.292 218.223 195.195 213.41 193.17C213.26 193.107 213.103 193.039 213.004 192.911C212.831 192.687 212.889 192.369 212.956 192.094C213.419 190.174 214.143 186.324 214.607 184.404C214.73 183.893 214.874 183.347 215.274 183.006C215.849 182.518 216.961 182.34 216.858 181.593" fill="black"/>
<path d="M219.951 181.435C222.127 181.982 224.283 182.601 226.415 183.301C228.414 183.956 230.484 184.605 232.392 185.497C234.714 186.582 233.393 189.215 232.86 191.031C232.276 193.02 231.834 195.142 231.053 197.061C230.703 197.919 230.062 198.65 229.087 198.728C228.018 198.813 226.896 198.119 225.902 197.794C223.935 197.151 221.906 196.737 219.886 196.301C217.767 195.843 215.645 195.356 213.621 194.563C212.683 194.196 211.728 193.785 211.683 192.625C211.654 191.884 211.938 191.102 212.094 190.378C212.473 188.617 212.814 186.849 213.2 185.089C213.39 184.223 213.538 183.284 214.065 182.549C214.333 182.175 214.688 181.899 215.085 181.674C215.239 181.587 215.401 181.514 215.556 181.428C216.034 181.161 215.631 181.295 215.639 181.593C215.598 180.024 218.036 180.025 218.077 181.593C218.092 182.166 217.869 182.691 217.445 183.078C217.061 183.428 216.564 183.558 216.163 183.866C215.643 184.268 215.549 185.74 215.404 186.42C215.166 187.54 214.939 188.662 214.707 189.783C214.594 190.326 214.48 190.868 214.361 191.409C214.269 191.83 214.083 192.298 214.133 192.728L213.967 192.113C213.989 192.159 214.46 192.286 214.538 192.315C214.85 192.433 215.165 192.544 215.482 192.649C216.065 192.843 216.654 193.017 217.248 193.176C218.47 193.505 219.709 193.773 220.946 194.039C223.391 194.564 225.839 195.097 228.166 196.031C228.404 196.127 228.66 196.273 228.915 196.314C228.618 196.267 228.755 196.45 228.814 196.129C228.919 195.554 229.163 194.969 229.328 194.407C229.707 193.113 230.087 191.82 230.467 190.527C230.649 189.904 230.832 189.281 231.015 188.659C231.096 188.382 231.147 188.058 231.268 187.797C231.289 187.751 231.31 187.416 231.378 187.64C231.432 187.814 231.404 187.669 231.306 187.668C231.055 187.668 230.69 187.42 230.45 187.326C230.178 187.221 229.904 187.116 229.631 187.013C228.992 186.772 228.35 186.538 227.706 186.311C224.946 185.338 222.141 184.5 219.303 183.786C217.782 183.403 218.426 181.051 219.951 181.435Z" fill="black"/>
<path d="M117.394 304.171C118.682 303.51 118.774 301.853 118.272 300.639C117.561 298.921 115.964 297.589 114.673 296.314C111.711 293.388 108.628 290.586 105.434 287.915C99.0569 282.583 92.2262 277.794 85.0503 273.598C81.1197 271.3 76.886 268.92 72.1839 269.137C70.6154 269.209 70.6191 266.771 72.1839 266.699C76.7516 266.488 80.9964 268.481 84.8755 270.682C88.8084 272.914 92.6333 275.342 96.3433 277.926C103.779 283.106 110.765 288.94 117.166 295.356C118.748 296.941 120.537 298.725 120.907 301.037C121.229 303.046 120.528 305.299 118.625 306.276C117.232 306.992 115.997 304.889 117.394 304.171Z" fill="black"/>
<path d="M250.925 320.807C250.372 326.104 247.763 331.09 243.576 334.419C243.061 334.828 242.354 334.921 241.852 334.419C241.427 333.994 241.334 333.107 241.852 332.695C245.511 329.786 247.999 325.481 248.487 320.807C248.555 320.153 248.998 319.588 249.706 319.588C250.312 319.588 250.994 320.148 250.925 320.807Z" fill="black"/>
<path d="M258.836 325.623C258.139 329.736 256.612 333.699 254.386 337.228C253.552 338.551 251.441 337.33 252.281 335.997C254.406 332.628 255.82 328.902 256.485 324.975C256.595 324.325 257.396 323.961 257.984 324.123C258.672 324.312 258.946 324.971 258.836 325.623Z" fill="black"/>
<path d="M265.238 332.85C265.142 333.71 264.903 334.531 264.436 335.268C263.977 335.991 263.368 336.601 262.638 337.049C262.094 337.383 261.273 337.185 260.97 336.612C260.656 336.017 260.827 335.301 261.408 334.944C261.529 334.869 261.647 334.789 261.762 334.703L261.515 334.893C261.805 334.669 262.063 334.411 262.289 334.122L262.098 334.369C262.331 334.065 262.522 333.736 262.671 333.383L262.548 333.675C262.687 333.335 262.783 332.983 262.832 332.62L262.789 332.944C262.793 332.913 262.797 332.881 262.8 332.85C262.837 332.517 262.911 332.233 263.157 331.988C263.368 331.776 263.715 331.617 264.019 331.631C264.334 331.645 264.661 331.748 264.881 331.988C265.086 332.211 265.273 332.535 265.238 332.85Z" fill="black"/>
<path d="M191.195 260.159C191.013 262.628 190.184 265.035 188.705 267.031C188.327 267.541 187.632 267.851 187.037 267.468C186.532 267.142 186.194 266.348 186.6 265.8C186.92 265.368 187.213 264.918 187.473 264.448C187.611 264.197 187.74 263.941 187.86 263.681C187.88 263.638 188.053 263.226 187.951 263.48C187.998 263.363 188.044 263.247 188.087 263.129C188.274 262.626 188.427 262.11 188.545 261.586C188.604 261.324 188.649 261.06 188.694 260.795C188.715 260.652 188.715 260.653 188.695 260.8C188.704 260.729 188.712 260.658 188.72 260.586C188.735 260.444 188.747 260.301 188.758 260.159C188.804 259.524 189.285 258.909 189.977 258.94C190.597 258.967 191.246 259.478 191.195 260.159Z" fill="black"/>
<path d="M178.069 187.442C177.718 188.298 177.449 189.186 177.274 190.096C177.234 190.304 177.171 190.53 177.166 190.743C177.174 190.426 177.153 190.858 177.147 190.919C177.136 191.02 177.127 191.12 177.118 191.221C177.079 191.691 177.066 192.161 177.074 192.633C177.085 193.27 176.506 193.881 175.855 193.852C175.185 193.822 174.648 193.316 174.636 192.633C174.602 190.644 174.963 188.635 175.718 186.794C175.844 186.487 175.981 186.239 176.279 186.065C176.54 185.912 176.925 185.847 177.218 185.942C177.784 186.126 178.329 186.81 178.069 187.442Z" fill="black"/>
<path d="M169.446 185.53C169.416 185.566 169.343 185.627 169.331 185.672C169.349 185.607 169.447 185.512 169.357 185.644C169.289 185.745 169.219 185.844 169.155 185.947C169.027 186.154 168.916 186.369 168.81 186.588C168.724 186.763 168.8 186.554 168.823 186.547C168.804 186.553 168.765 186.695 168.757 186.717C168.714 186.831 168.675 186.946 168.639 187.062C168.562 187.309 168.501 187.561 168.456 187.815C168.45 187.849 168.407 188.052 168.442 187.878C168.477 187.707 168.439 187.906 168.436 187.943C168.423 188.064 168.414 188.185 168.408 188.306C168.397 188.549 168.4 188.793 168.418 189.035C168.422 189.096 168.428 189.156 168.434 189.217C168.438 189.254 168.476 189.451 168.441 189.281C168.404 189.108 168.448 189.309 168.455 189.343C168.465 189.403 168.477 189.463 168.49 189.522C168.544 189.775 168.617 190.022 168.703 190.266C168.915 190.869 168.462 191.627 167.851 191.766C167.169 191.921 166.579 191.559 166.352 190.914C165.496 188.487 166.101 185.762 167.722 183.806C168.131 183.314 169.029 183.352 169.446 183.806C169.927 184.33 169.882 185.005 169.446 185.53Z" fill="black"/>
<path d="M160.164 183.67C160.048 184.704 159.931 185.737 159.815 186.771C159.778 187.104 159.704 187.387 159.458 187.633C159.247 187.844 158.9 188.003 158.596 187.99C158.281 187.976 157.954 187.872 157.734 187.633C157.53 187.41 157.342 187.085 157.377 186.771C157.493 185.737 157.61 184.704 157.726 183.67C157.763 183.337 157.837 183.054 158.083 182.809C158.294 182.597 158.641 182.438 158.945 182.451C159.26 182.466 159.587 182.569 159.807 182.809C160.011 183.031 160.199 183.356 160.164 183.67Z" fill="black"/>
<path d="M125.048 155.424C124.589 155.941 124.13 156.458 123.67 156.975C123.56 157.094 123.429 157.178 123.278 157.227C123.133 157.303 122.976 157.338 122.808 157.332C122.64 157.338 122.484 157.303 122.339 157.227C122.187 157.178 122.057 157.094 121.946 156.975C121.733 156.743 121.575 156.437 121.589 156.113L121.633 155.789C121.691 155.582 121.795 155.403 121.946 155.251C122.406 154.734 122.865 154.217 123.324 153.701C123.435 153.582 123.565 153.498 123.717 153.449C123.862 153.372 124.018 153.337 124.186 153.344C124.354 153.337 124.511 153.372 124.656 153.449C124.807 153.498 124.938 153.582 125.048 153.701C125.262 153.933 125.42 154.238 125.405 154.562L125.362 154.887C125.304 155.093 125.199 155.272 125.048 155.424Z" fill="black"/>
<path d="M119.73 163.103C119.385 163.907 119.041 164.711 118.696 165.514C118.584 165.775 118.227 166.003 117.967 166.075C117.675 166.155 117.287 166.119 117.028 165.952C116.768 165.784 116.539 165.534 116.468 165.223L116.424 164.899C116.425 164.679 116.48 164.474 116.591 164.284C116.936 163.48 117.28 162.676 117.625 161.873C117.737 161.612 118.094 161.384 118.354 161.312C118.645 161.232 119.034 161.268 119.293 161.435C119.553 161.603 119.782 161.853 119.853 162.164L119.896 162.488C119.896 162.708 119.84 162.913 119.73 163.103Z" fill="black"/>
<path d="M114.268 168.479C113.88 169.05 113.551 169.656 113.282 170.292L113.405 170.001C113.123 170.681 112.913 171.387 112.779 172.111C112.726 172.397 112.461 172.698 112.219 172.839C111.957 172.992 111.572 173.057 111.279 172.962C110.607 172.745 110.303 172.136 110.428 171.463C110.705 169.966 111.308 168.507 112.163 167.248C112.343 166.983 112.576 166.775 112.892 166.688C113.184 166.608 113.572 166.644 113.831 166.811C114.355 167.149 114.652 167.915 114.268 168.479Z" fill="black"/>
<path d="M269.06 218.3C267.107 216.578 265.155 214.855 263.203 213.132C262.723 212.709 262.738 211.835 263.203 211.408C263.715 210.939 264.415 210.957 264.927 211.408C266.879 213.131 268.831 214.854 270.784 216.576C271.263 217 271.248 217.874 270.784 218.3C270.272 218.77 269.571 218.752 269.06 218.3Z" fill="#03EBB3"/>
<path d="M266.579 227.322C263.591 224.097 260.254 221.22 256.606 218.765C256.06 218.398 255.821 217.691 256.169 217.097C256.485 216.556 257.288 216.291 257.836 216.66C261.653 219.229 265.176 222.223 268.303 225.598C269.368 226.748 267.648 228.476 266.579 227.322Z" fill="#03EBB3"/>
<path d="M262.236 235.469C259.84 232.697 257.112 230.223 254.132 228.16C253.591 227.786 253.344 227.092 253.694 226.492C254.007 225.957 254.818 225.679 255.362 226.055C258.536 228.252 261.435 230.824 263.96 233.745C264.39 234.243 264.449 234.98 263.96 235.469C263.52 235.909 262.668 235.97 262.236 235.469Z" fill="#03EBB3"/>
<path d="M207.232 184.89C202.333 192.599 201.453 202.431 204.835 210.907C205.079 211.518 204.569 212.246 203.984 212.406C203.29 212.597 202.729 212.169 202.484 211.555C198.881 202.525 199.917 191.858 205.127 183.659C205.966 182.339 208.077 183.56 207.232 184.89Z" fill="black"/>
<path d="M222.463 190.148C220.894 190.148 220.892 187.71 222.463 187.71C224.032 187.71 224.034 190.148 222.463 190.148Z" fill="#03EBB3"/>
<path d="M410.786 365.854C408.36 364.502 405.933 363.151 403.507 361.799C402.949 361.488 402.718 360.677 403.07 360.131C403.434 359.567 404.141 359.362 404.737 359.694C407.164 361.045 409.59 362.397 412.017 363.749C412.574 364.059 412.806 364.871 412.454 365.416C412.09 365.981 411.383 366.186 410.786 365.854Z" fill="#03EBB3"/>
<path d="M407.398 374.012C404.317 371.574 400.917 369.541 397.341 367.919C396.741 367.647 396.596 366.778 396.904 366.251C397.264 365.635 397.97 365.541 398.571 365.814C402.351 367.528 405.869 369.714 409.122 372.288C409.638 372.697 409.549 373.584 409.122 374.012C408.611 374.522 407.916 374.422 407.398 374.012Z" fill="#03EBB3"/>
<path d="M406.131 386.557C405.447 386.034 404.763 385.511 404.078 384.988C403.936 384.912 403.822 384.807 403.736 384.674C403.628 384.556 403.556 384.418 403.518 384.26C403.438 383.968 403.474 383.579 403.641 383.32C403.809 383.06 404.059 382.831 404.369 382.76L404.693 382.717C404.913 382.717 405.119 382.773 405.309 382.883C405.993 383.406 406.677 383.929 407.362 384.452C407.504 384.529 407.618 384.633 407.704 384.766C407.812 384.884 407.884 385.022 407.922 385.18C408.002 385.472 407.966 385.861 407.799 386.12C407.631 386.38 407.381 386.609 407.071 386.68L406.747 386.723C406.526 386.723 406.321 386.667 406.131 386.557Z" fill="#03EBB3"/>
<path d="M395.846 378.518C394.277 378.518 394.275 376.08 395.846 376.08C397.415 376.08 397.417 378.518 395.846 378.518Z" fill="#03EBB3"/>
<path d="M543.032 454.319C542.17 453.802 541.309 453.285 540.448 452.768C540.183 452.61 539.97 452.339 539.888 452.04C539.807 451.748 539.843 451.36 540.01 451.101C540.178 450.84 540.428 450.611 540.739 450.54C541.057 450.468 541.392 450.492 541.678 450.663C542.54 451.18 543.401 451.697 544.262 452.214C544.527 452.373 544.74 452.643 544.822 452.942C544.903 453.234 544.866 453.623 544.699 453.882C544.532 454.142 544.282 454.371 543.971 454.442C543.653 454.514 543.318 454.49 543.032 454.319Z" fill="#03EBB3"/>
<path d="M547.274 446.397C544.397 444.582 541.419 442.932 538.355 441.453C537.762 441.167 537.604 440.321 537.918 439.785C538.272 439.18 538.991 439.061 539.586 439.348C542.65 440.827 545.627 442.477 548.505 444.292C549.061 444.643 549.282 445.378 548.942 445.96C548.617 446.514 547.833 446.749 547.274 446.397Z" fill="#03EBB3"/>
<path d="M533.73 448.634C533.214 448.29 532.697 447.945 532.18 447.601C531.915 447.424 531.706 447.185 531.62 446.872C531.569 446.71 531.562 446.548 531.598 446.386C531.605 446.224 531.654 446.073 531.743 445.933C531.91 445.673 532.16 445.443 532.471 445.373C532.78 445.302 533.138 445.314 533.41 445.495C533.927 445.84 534.444 446.185 534.961 446.529C535.226 446.706 535.435 446.944 535.521 447.258C535.572 447.42 535.579 447.582 535.543 447.744C535.535 447.906 535.487 448.057 535.398 448.197C535.23 448.457 534.98 448.686 534.67 448.757C534.36 448.827 534.003 448.816 533.73 448.634Z" fill="#03EBB3"/>
<path d="M541.998 431.063C541.309 430.546 540.62 430.03 539.931 429.513C539.789 429.436 539.675 429.332 539.589 429.199C539.482 429.081 539.409 428.943 539.371 428.784C539.291 428.493 539.327 428.104 539.494 427.845C539.662 427.585 539.912 427.356 540.223 427.285C540.521 427.217 540.905 427.215 541.162 427.408C541.851 427.925 542.54 428.441 543.229 428.958C543.371 429.035 543.485 429.139 543.571 429.272C543.679 429.39 543.751 429.528 543.789 429.687C543.869 429.978 543.833 430.367 543.666 430.626C543.498 430.886 543.249 431.115 542.938 431.186C542.639 431.254 542.255 431.256 541.998 431.063Z" fill="#03EBB3"/>
<path d="M451.83 467.565L451.314 467.048C451.195 466.938 451.111 466.807 451.062 466.656C450.985 466.511 450.95 466.354 450.957 466.186C450.95 466.018 450.985 465.862 451.062 465.717C451.111 465.566 451.195 465.435 451.314 465.324L451.56 465.134C451.751 465.023 451.956 464.968 452.176 464.967L452.5 465.011C452.706 465.069 452.886 465.173 453.038 465.324L453.554 465.841C453.673 465.951 453.757 466.082 453.806 466.233C453.883 466.379 453.918 466.535 453.911 466.703C453.918 466.871 453.883 467.027 453.806 467.173C453.757 467.324 453.673 467.455 453.554 467.565L453.308 467.756C453.118 467.866 452.912 467.921 452.692 467.922L452.368 467.878C452.162 467.821 451.983 467.716 451.83 467.565Z" fill="#03EBB3"/>
<path d="M451.043 476.541C450.354 476.024 449.665 475.507 448.976 474.99C448.834 474.914 448.72 474.809 448.634 474.676C448.526 474.559 448.454 474.42 448.416 474.262C448.336 473.97 448.372 473.582 448.539 473.323C448.707 473.062 448.957 472.833 449.267 472.762C449.566 472.694 449.95 472.693 450.207 472.885C450.896 473.402 451.585 473.919 452.274 474.436C452.416 474.512 452.53 474.617 452.616 474.75C452.724 474.867 452.796 475.006 452.834 475.164C452.914 475.456 452.878 475.844 452.711 476.103C452.543 476.364 452.294 476.593 451.983 476.664C451.684 476.732 451.3 476.733 451.043 476.541Z" fill="#03EBB3"/>
<path d="M387.426 467.843C386.563 467.33 385.7 466.816 384.837 466.302C384.572 466.144 384.359 465.871 384.277 465.573C384.196 465.282 384.233 464.893 384.4 464.634C384.567 464.374 384.817 464.145 385.128 464.074C385.447 464.001 385.781 464.026 386.067 464.197C386.93 464.711 387.794 465.224 388.657 465.738C388.921 465.896 389.135 466.169 389.217 466.467C389.297 466.759 389.261 467.147 389.094 467.406C388.926 467.666 388.676 467.895 388.365 467.966C388.047 468.039 387.713 468.014 387.426 467.843Z" fill="#03EBB3"/>
<path d="M385.491 476.409C382.185 474.397 378.879 472.385 375.572 470.373C374.234 469.559 375.457 467.449 376.803 468.268C380.109 470.28 383.415 472.292 386.722 474.304C388.06 475.119 386.837 477.228 385.491 476.409Z" fill="#03EBB3"/>
<path d="M378.275 462.754C376.706 462.754 376.703 460.316 378.275 460.316C379.843 460.316 379.846 462.754 378.275 462.754Z" fill="#03EBB3"/>
<path d="M370.523 477.224C368.954 477.224 368.951 474.786 370.523 474.786C372.091 474.786 372.094 477.224 370.523 477.224Z" fill="#03EBB3"/>
<path d="M305.826 482.742C305.309 482.398 304.792 482.053 304.276 481.709C304.011 481.532 303.802 481.294 303.715 480.98C303.665 480.818 303.657 480.656 303.694 480.494C303.701 480.332 303.749 480.181 303.838 480.041C304.006 479.781 304.256 479.552 304.567 479.481C304.876 479.411 305.234 479.422 305.506 479.604C306.023 479.948 306.54 480.293 307.057 480.637C307.321 480.814 307.53 481.052 307.617 481.366C307.667 481.528 307.675 481.69 307.638 481.852C307.631 482.014 307.583 482.165 307.494 482.305C307.326 482.565 307.076 482.795 306.765 482.865C306.456 482.936 306.099 482.924 305.826 482.742Z" fill="#03EBB3"/>
<path d="M306.958 490.661C305.39 490.661 305.387 488.223 306.958 488.223C308.527 488.223 308.53 490.661 306.958 490.661Z" fill="#03EBB3"/>
<path d="M328.564 518.4C328.22 518.228 327.875 518.056 327.531 517.884C327.389 517.807 327.275 517.702 327.189 517.57C327.081 517.452 327.008 517.314 326.971 517.155C326.92 516.993 326.913 516.831 326.949 516.669C326.956 516.507 327.004 516.356 327.094 516.216L327.284 515.969C327.436 515.818 327.615 515.714 327.822 515.656L328.146 515.612C328.366 515.613 328.571 515.668 328.761 515.779C329.106 515.951 329.45 516.123 329.795 516.296C329.937 516.372 330.051 516.477 330.137 516.609C330.245 516.727 330.317 516.865 330.355 517.024C330.406 517.186 330.413 517.348 330.377 517.51C330.369 517.672 330.321 517.823 330.232 517.963L330.042 518.21C329.889 518.361 329.71 518.466 329.504 518.523L329.18 518.567C328.96 518.566 328.754 518.511 328.564 518.4Z" fill="#03EBB3"/>
<path d="M484.623 565.451C482.714 564.444 480.805 563.437 478.896 562.431C478.331 562.133 478.113 561.3 478.459 560.763C478.829 560.188 479.522 560.007 480.126 560.326C482.035 561.332 483.945 562.339 485.854 563.345C486.419 563.643 486.637 564.477 486.291 565.013C485.92 565.588 485.228 565.769 484.623 565.451Z" fill="#03EBB3"/>
<path d="M480.762 573.389L477.676 572.313C477.374 572.208 477.113 572.036 476.947 571.753C476.795 571.492 476.73 571.107 476.825 570.814C476.92 570.519 477.103 570.234 477.385 570.085C477.664 569.938 478.015 569.855 478.324 569.962L481.41 571.039C481.712 571.144 481.973 571.316 482.138 571.599C482.291 571.86 482.356 572.245 482.261 572.538C482.166 572.833 481.983 573.117 481.701 573.266C481.422 573.414 481.071 573.497 480.762 573.389Z" fill="#03EBB3"/>
</svg>
