<svg width="28" height="31" viewBox="0 0 28 31" fill="none" xmlns="http://www.w3.org/2000/svg">
<path d="M15.5498 15.5H12.4498C9.16112 15.5 6.00713 16.8064 3.68168 19.1319C1.35623 21.4573 0.0498047 24.6113 0.0498047 27.9C0.0498047 28.7222 0.376411 29.5107 0.957774 30.092C1.53914 30.6734 2.32763 31 3.1498 31H24.8498C25.672 31 26.4605 30.6734 27.0418 30.092C27.6232 29.5107 27.9498 28.7222 27.9498 27.9C27.9498 24.6113 26.6434 21.4573 24.3179 19.1319C21.9925 16.8064 18.8385 15.5 15.5498 15.5Z" fill="#03EBB3"/>
<path d="M14.0002 18.6C19.1364 18.6 23.3002 14.4362 23.3002 9.3C23.3002 4.16375 19.1364 0 14.0002 0C8.86395 0 4.7002 4.16375 4.7002 9.3C4.7002 14.4362 8.86395 18.6 14.0002 18.6Z" fill="#E6E6E6"/>
</svg>
